<svg xmlns="http://www.w3.org/2000/svg" width="32" height="32" viewBox="0 0 32 32" fill="none">
    <path d="M17.6353 0.0033214C17.6969 -0.00887619 17.8027 0.0123792 17.8641 0.0694546C17.925 0.126338 17.9317 0.155221 17.9459 0.188155C17.9674 0.254436 17.9627 0.269564 17.9645 0.29084C17.9645 0.333499 17.9611 0.348157 17.958 0.369409C17.9517 0.406728 17.944 0.435824 17.9375 0.460413C17.923 0.514711 17.909 0.559045 17.894 0.606245C17.8647 0.698227 17.8353 0.785667 17.806 0.873415C17.7948 0.906716 17.7835 0.939852 17.7724 0.972898C17.7249 1.11396 17.6776 1.25376 17.6294 1.39193C17.5482 1.63043 17.4526 1.87335 17.3633 2.09923C17.4132 2.115 17.44 2.20488 17.4542 2.20305C17.5751 2.18504 17.3604 1.94837 17.4696 1.85919C17.4734 1.85674 17.4963 1.91401 17.5095 1.91082C17.5499 1.90142 17.5626 1.86077 17.6042 1.85279C17.6983 1.83616 17.821 1.93579 17.8616 1.78609C17.8666 1.76686 17.7322 1.64273 17.8373 1.56847C17.8794 1.53851 18.056 1.39399 18.115 1.36386C18.1732 1.33376 18.1742 1.40631 18.1794 1.40587C18.3633 1.36243 18.3317 1.42692 18.4683 1.46748C18.6035 1.50913 18.4242 1.30478 18.435 1.25947C18.4457 1.21424 18.5887 1.19258 18.6262 1.19466C18.6643 1.19594 18.6526 1.24804 18.6828 1.24308C18.8794 1.2133 18.6764 1.0874 18.7069 1.01736C18.7826 0.852544 18.9896 0.968917 19.1199 0.941056C19.156 0.933644 19.1109 0.900913 19.1435 0.885285C19.2075 0.855761 19.2688 0.853669 19.3325 0.855327C19.3988 0.859496 19.4658 0.855569 19.5805 0.888488C19.5961 0.893522 19.6486 0.896225 19.7042 0.931258C19.7543 0.950381 19.8054 0.988476 19.7908 1.0541C19.7866 1.07042 19.728 1.07458 19.7504 1.12551C19.7842 1.20125 19.8499 1.3331 19.9016 1.40135C19.941 1.45318 19.9837 1.35075 19.9958 1.43621C20.0005 1.47396 19.9286 1.43338 19.9404 1.50177C19.9529 1.56902 20.0149 1.72913 20.0334 1.7876C20.0536 1.84746 20.1037 1.79683 20.1093 1.80041C20.1423 1.82325 20.2042 1.93943 20.2063 1.95114C20.3427 2.50804 20.2303 3.01777 20.2145 3.54795C20.213 3.58844 20.2814 3.5686 20.2822 3.5747C20.2946 3.71754 20.1314 3.58853 20.0615 3.67776C20.1968 3.67973 20.1662 3.73389 20.167 3.83528C20.1674 3.88426 20.2226 3.86563 20.2274 3.8707C20.2955 3.95406 20.1861 3.98996 20.1634 3.99938C20.0797 4.0364 20.1614 4.09826 20.1051 4.12129C20.0494 4.14341 19.9873 4.05998 19.9721 4.15143C20.0149 4.18568 20.1513 4.13879 20.1587 4.21305C20.1875 4.50129 19.9714 4.97598 19.8994 5.18827C19.8315 5.39286 19.8187 5.46362 19.7646 5.58112C19.6651 5.79359 19.7791 5.74161 19.776 5.88955C19.7716 6.03843 19.5751 5.90055 19.5218 5.90443C19.4686 5.90777 19.5098 5.94434 19.4761 5.95926C19.4424 5.97391 19.4278 5.91276 19.3994 5.96435C19.3712 6.01575 19.4011 6.19572 19.4425 6.23303C19.5306 6.31128 19.6639 6.28122 19.5719 6.41598C19.5665 6.42337 19.5197 6.37604 19.5022 6.40561C19.3665 6.64103 19.257 6.91174 19.1167 7.14231C19.0971 7.17432 19.0477 7.11831 19.0357 7.13666C18.909 7.32766 19.0447 7.29675 19.1116 7.46054C18.9684 7.36938 18.8471 7.39327 18.7773 7.5491C18.7355 7.64187 18.8096 7.65538 18.8297 7.73676C18.8356 7.76127 18.76 7.80701 18.7858 7.83303C18.8703 7.91874 19.0142 7.90754 18.894 8.04896C18.8886 8.05507 18.8429 8.00697 18.8282 8.02993C18.7326 8.1778 18.8299 8.24742 18.7617 8.42277C18.7081 8.56065 18.5269 8.76595 18.44 8.91076C18.2732 8.82356 18.2404 8.98264 18.3263 9.0988C18.2715 9.19307 18.2232 9.30079 18.1577 9.38556C18.1352 9.41475 18.0981 9.36824 18.0907 9.36955C17.9761 9.38823 18.0652 9.48899 18.0584 9.51199C17.9797 9.75883 17.7951 9.89404 17.7562 10.1509C17.7554 10.1603 17.8615 10.2365 17.7462 10.246C17.7384 10.2464 17.7266 10.1476 17.6655 10.2445C17.6042 10.3417 17.435 10.4923 17.4058 10.6587C17.3989 10.6988 17.4395 10.8368 17.3276 10.8612C17.3125 10.8642 17.2862 10.8354 17.2606 10.8375C17.1785 10.8447 17.2777 10.9354 17.1518 10.9258C17.0259 10.9163 16.8929 10.9722 16.8743 11.1469C16.8735 11.1523 16.9424 11.2391 16.9142 11.2808C16.8686 11.3475 16.7885 11.432 16.7435 11.5026C16.722 11.5364 16.7907 11.55 16.7879 11.5565C16.6717 11.8019 16.5163 11.9307 16.332 12.1551C16.2983 12.196 16.285 12.3709 16.1689 12.4139C16.0403 12.4627 15.8458 12.1866 15.7587 12.4392C15.7237 12.54 15.9751 12.8833 15.6947 12.9091C15.5166 13.2354 15.2287 13.4312 15.0561 13.7594C15.0486 13.774 15.1035 13.8844 15.0782 13.913C15.0403 13.9548 14.9795 13.9453 14.9498 13.9753C14.8255 14.0987 14.7576 14.2465 14.6448 14.3633C14.6022 14.4074 14.5753 14.3555 14.5222 14.4102C14.4691 14.4646 14.4885 14.5503 14.394 14.6014C14.3225 14.6398 14.1633 14.5949 14.0837 14.6532C14.1874 14.7541 14.1345 14.8055 14.0742 14.921C14.0626 14.9432 14.1169 14.9602 14.1133 14.9726C14.0991 15.0238 14.0391 15.0246 14.0282 15.0751C14.0256 15.0874 14.0602 15.1227 14.0599 15.1346C14.0579 15.2389 13.8961 15.2399 13.8648 15.2428C13.7538 15.2467 13.7703 15.3189 13.7048 15.3398C13.6397 15.36 13.6827 15.2717 13.618 15.3068C13.4864 15.3775 13.3478 15.5078 13.2291 15.5998C13.1827 15.6361 13.2551 15.6621 13.2498 15.6686C13.1655 15.7574 13.0226 15.7763 13.0415 15.9239C12.7728 15.6976 12.998 15.997 12.8137 16.0358C12.7991 16.0384 12.699 15.9122 12.7276 15.8659C12.7559 15.8196 12.8485 15.818 12.887 15.7456C12.8965 15.7284 12.8874 15.5494 12.8923 15.5339C12.9311 15.4159 13.0867 15.5964 13.1007 15.6036C13.2382 15.6773 13.2315 15.4739 13.2484 15.4449C13.3327 15.308 13.4395 15.2586 13.506 15.1486C13.5488 15.0772 13.4467 14.9573 13.4958 14.9179C13.656 14.7881 13.8589 14.8956 13.8623 14.621C13.8624 14.5626 13.7105 14.473 13.9115 14.459C13.924 14.4586 14.0892 14.4638 14.0753 14.3638C14.0735 14.3513 14.0363 14.3175 14.0404 14.3069C14.0683 14.2368 14.1302 14.2285 14.1687 14.1575C14.208 14.0855 14.2475 13.9983 14.3175 13.944C14.3598 13.9112 14.4757 13.9202 14.51 13.9154C14.6078 13.9028 14.576 13.7732 14.6668 13.7892C14.7585 13.8047 14.7935 13.9528 14.9126 13.8913C14.8149 13.805 14.7182 13.7119 14.6213 13.6235C14.7861 13.433 14.9869 13.2499 15.1385 13.044C15.1575 13.018 15.0815 13.0015 15.1004 12.9726C15.1802 12.8506 15.2983 12.7774 15.3741 12.6419C15.4307 12.5393 15.4459 12.3924 15.5024 12.2819C15.6677 12.3078 15.7352 12.1257 15.8206 12.0267C15.8509 11.9915 15.882 12.0164 15.9115 11.9966C16.0222 11.921 15.8801 11.895 15.8821 11.8553C15.8914 11.6849 16.1466 11.8408 16.2386 11.6906C16.2438 11.6819 16.1728 11.5019 16.1729 11.4837C16.1727 11.3671 16.2282 11.5005 16.2718 11.4559C16.3514 11.374 16.4264 11.3287 16.4588 11.1923C16.468 11.1524 16.4341 11.0214 16.5389 10.9989C16.5526 10.996 16.5944 11.0284 16.6013 11.0234C16.7212 10.9296 16.5826 10.8393 16.5778 10.741C16.573 10.6429 16.7363 10.5946 16.7781 10.5893C16.8861 10.5756 16.7823 10.6522 16.7875 10.6596C16.8501 10.7476 16.884 10.66 16.928 10.6037C17.0723 10.6781 17.1156 10.5878 16.973 10.5449C16.9574 10.5403 16.9418 10.5952 16.928 10.6037C16.824 10.4686 16.8619 10.3664 17.0512 10.3387C17.1399 10.3256 17.1832 10.4123 17.2443 10.2498C17.2718 10.1761 17.1601 10.1464 17.168 10.0723C17.186 9.90329 17.377 9.77849 17.4409 9.62993C17.4641 9.57615 17.3828 9.59625 17.3967 9.55853C17.4334 9.45847 17.5184 9.39869 17.5482 9.29456C17.5508 9.2851 17.4833 9.2754 17.4983 9.24614C17.6102 9.02337 17.7478 8.84964 17.8663 8.61891C17.9241 8.50669 17.9925 8.28948 18.0552 8.17595C18.1634 7.98067 18.3669 7.76454 18.4248 7.58037C18.4628 7.46031 18.3927 7.45957 18.3743 7.39347C18.3385 7.2663 18.5508 7.15604 18.582 7.14231C18.5824 7.14427 18.5548 7.24679 18.6072 7.20694C18.683 7.20258 18.5834 7.14444 18.582 7.14231C18.6027 7.13302 18.6992 6.94001 18.7037 6.89624C18.7061 6.87244 18.6451 6.86166 18.6475 6.8497C18.7062 6.56298 18.7939 6.29295 18.9182 6.02916C18.921 6.02472 18.9824 6.05442 18.9884 6.04367C19.0736 5.89375 19.0294 5.76539 19.0248 5.62162C19.0199 5.47851 19.0689 5.37637 19.204 5.33241C19.2204 5.22863 19.3105 5.10157 19.3629 5.02869C19.4163 4.95226 19.2915 4.90683 19.291 4.89887C19.2706 4.64798 19.3728 4.54819 19.4356 4.30838C19.4658 4.19461 19.4861 3.97803 19.4903 3.85167C19.4935 3.75343 19.532 3.70013 19.5229 3.61106C19.5217 3.59913 19.4624 3.60387 19.4601 3.60014C19.4013 3.49715 19.5388 3.55876 19.5666 3.54173C19.667 3.48093 19.7222 3.43747 19.6879 3.30546C19.6801 3.27437 19.4783 3.17857 19.4681 3.1291C19.4553 3.06381 19.5288 3.09047 19.5125 3.02246C19.5111 3.01645 19.4653 3.01773 19.4679 2.97536C19.479 2.77314 19.4953 2.57104 19.4622 2.37658C19.4579 2.35101 19.3908 2.39399 19.3834 2.35811C19.3496 2.19428 19.3065 2.01618 19.2819 1.86504C19.2757 1.8269 19.3315 1.82958 19.3424 1.81624C19.4001 1.7395 19.2817 1.72269 19.253 1.71525C19.2302 1.75956 19.1925 1.80119 19.1258 1.7616C19.1192 1.75615 18.9979 1.68585 18.9992 1.7876C18.9994 1.79393 19.0677 1.82491 19.0079 1.85769C18.9469 1.89143 18.8814 1.99105 18.7585 1.99579C18.7202 1.99686 18.5828 1.94541 18.5677 2.08303C18.5667 2.09296 18.5901 2.35914 18.4504 2.27408C18.4275 2.26 18.3309 2.12775 18.2921 2.2673C18.2847 2.29431 18.3401 2.29606 18.3079 2.35171C18.26 2.436 18.1353 2.48232 18.0917 2.61191C18.0832 2.63561 18.0866 2.77548 17.9751 2.75699C17.958 2.75378 17.9403 2.69832 17.907 2.71704C17.8258 2.76325 17.7577 2.8184 17.6642 2.88511C17.6171 2.91779 17.5713 2.95108 17.4804 2.99702C17.4606 3.00672 17.4305 3.02105 17.3914 3.03584C17.3471 3.05086 17.3261 3.06322 17.2137 3.08143C17.1626 3.08822 17.0992 3.09241 17.0193 3.08162C16.937 3.07319 16.7721 3.02195 16.6588 2.91638C16.4213 2.6779 16.4455 2.51701 16.4377 2.40597C16.4389 2.39031 16.4407 2.37546 16.4426 2.36132C16.4536 2.28858 16.4811 2.28723 16.5091 2.2754C16.5371 2.26674 16.5671 2.25169 16.5858 2.21228C16.6238 2.12562 16.681 1.99195 16.6619 1.91025C16.6425 1.82931 16.4847 1.86812 16.5045 1.75858C16.5399 1.57001 16.5983 1.39558 16.6644 1.22857C16.5274 1.31435 16.3925 1.32113 16.2619 1.41134C16.2318 1.43244 16.2946 1.47396 16.2688 1.49122C16.1808 1.5508 16.0688 1.57966 15.9833 1.63592C15.9449 1.6614 15.978 1.70037 15.9398 1.71864C15.8493 1.76252 15.7624 1.79165 15.6526 1.80587C15.6426 1.8072 15.6597 1.72138 15.5949 1.76028C15.4902 1.82347 15.3352 1.87152 15.2471 1.99316C15.2211 2.02949 15.2874 2.1237 15.1676 2.11223C15.1425 2.10999 15.0789 1.98428 15.0654 2.14313C15.0623 2.16993 15.0207 2.40368 14.8885 2.37545C14.8536 2.36795 14.7361 2.31604 14.7072 2.36207C14.7039 2.36868 14.7642 2.39947 14.7353 2.43046C14.6328 2.53905 14.5092 2.63411 14.4073 2.74888C14.3803 2.7796 14.4683 2.78786 14.4269 2.83197C14.3131 2.95327 14.1502 3.08125 14.0195 3.1796C13.9713 3.21564 13.9636 3.14909 13.9565 3.14794C13.8396 3.12993 13.8994 3.24976 13.8883 3.27117C13.8176 3.40392 13.6977 3.44158 13.6178 3.54908C13.5959 3.57851 13.6577 3.60073 13.6569 3.60975C13.6444 3.70037 13.6027 3.58575 13.5611 3.61276C13.4442 3.68856 13.3476 3.80374 13.2653 3.91158C13.2354 3.9511 13.3252 3.95428 13.298 3.98902C13.1366 4.19697 12.9647 4.40484 12.7866 4.58761C12.7528 4.62221 12.7257 4.56678 12.7097 4.56783C12.5979 4.5756 12.6387 4.72521 12.6359 4.74984C12.6209 4.86458 12.5585 4.87307 12.518 4.95426C12.3721 5.24784 12.1893 5.57854 12.0753 5.86543C12.0588 5.9046 12.037 5.96502 12.0193 6.01673C12.0021 6.06662 11.9838 6.12357 11.9669 6.17952C11.8096 6.70908 11.6793 7.16336 11.6097 7.71528C11.6053 7.75045 11.682 7.72554 11.6791 7.75597C11.6392 8.15009 11.5641 8.53428 11.5459 8.93036C11.5443 8.96286 11.6171 8.92284 11.6169 8.9752C11.6168 9.08344 11.6009 9.21713 11.5702 9.32263C11.5553 9.37428 11.5025 9.29906 11.4887 9.35127C11.4566 9.47333 11.4419 9.60571 11.4445 9.73281C11.4458 9.78704 11.5211 9.71029 11.5174 9.78029C11.4938 10.2579 11.4894 10.7235 11.4001 11.2028C11.394 11.2355 11.2517 11.2656 11.2798 11.336C11.3193 11.3409 11.3658 11.34 11.4081 11.3419C11.4394 12.0315 11.4346 12.7084 11.5463 13.3698C11.5511 13.3975 11.6165 13.3365 11.6262 13.3897C11.682 13.6927 11.7739 13.9772 11.8029 14.2805C11.8064 14.3112 11.6757 14.3423 11.7268 14.4196C11.7359 14.4344 11.8015 14.5474 11.8428 14.5675C11.8486 14.5698 11.8955 14.5235 11.9143 14.5607C12.0208 14.7723 12.1308 14.9773 12.238 15.1471C12.2558 15.1752 12.1834 15.1943 12.1964 15.2153C12.2934 15.3671 12.4598 15.4222 12.574 15.5309C12.6565 15.6045 12.5826 15.6978 12.614 15.8238C12.6188 15.8421 12.6962 15.8632 12.6883 15.9271C12.6772 16.0176 12.6459 16.1088 12.6173 16.2018C12.6509 16.2328 12.6482 16.2744 12.5854 16.3164C12.5766 16.3533 12.5693 16.3907 12.5656 16.4285C12.5619 16.4672 12.7264 16.4549 12.6171 16.5278C12.6094 16.5333 12.4876 16.5387 12.4508 16.56C12.425 16.5752 12.4455 16.649 12.3957 16.664C12.3451 16.6782 12.3147 16.6121 12.2359 16.6184C12.1545 16.6226 12.1575 16.7075 12.0098 16.653C11.663 16.5271 11.3082 16.2001 11.1357 15.9341C11.0798 15.8508 11.1439 15.8647 11.1089 15.8063C11.0402 15.6895 10.9609 15.6067 10.9126 15.4892C10.8973 15.4506 10.9795 15.4614 10.9626 15.4221C10.873 15.2115 10.7691 15.0256 10.7038 14.8211C10.3909 13.7971 10.3238 12.8222 10.308 11.8319C10.3047 11.5041 10.3609 11.1094 10.3414 10.7742C10.339 10.7351 10.2813 10.7574 10.2767 10.7499C10.2068 10.6313 10.3217 10.6726 10.339 10.5969C10.4074 10.2964 10.4287 9.96436 10.4259 9.67252C10.4246 9.5491 10.3027 9.66445 10.375 9.54515C10.38 9.53698 10.4383 9.57207 10.4472 9.53912C10.467 9.46508 10.4676 9.31709 10.4774 9.25876C10.4964 9.14566 10.4973 9.12738 10.5077 9.02023C10.5229 8.87066 10.5702 8.70228 10.574 8.54204C10.5746 8.50775 10.5075 8.54589 10.503 8.4906C10.4984 8.43506 10.5202 8.29387 10.5406 8.24849C10.5609 8.20304 10.6071 8.22885 10.6193 8.22192C10.7218 8.16329 10.6132 7.9823 10.6125 7.96078C10.6089 7.56768 10.7333 7.25114 10.7978 6.88946C10.8461 6.61831 10.8808 6.31962 10.947 6.05837C10.9913 5.88509 11.0527 5.702 11.1188 5.53797C11.1647 5.42428 11.2157 5.30784 11.2663 5.18903C11.2798 5.15764 11.1962 5.16458 11.2129 5.12572C11.3905 4.71705 11.6246 4.35127 11.9115 4.02991C11.9405 3.99773 11.9611 4.07957 11.9931 4.04969C12.1861 3.86618 12.5343 3.6333 12.42 3.33749C12.5414 3.20993 12.6925 3.05684 12.8407 2.98007C12.9363 2.9306 12.9211 3.04904 12.9832 2.93937C12.9972 2.91478 12.9278 2.89919 12.9525 2.86532C13.0579 2.72179 13.208 2.59922 13.3118 2.45534C13.3328 2.426 13.2875 2.3933 13.2879 2.37922C13.2938 2.26272 13.4892 2.2611 13.5182 2.24789C13.7393 2.14221 13.8482 2.00978 14.0167 1.87125C14.0558 1.83925 13.9624 1.82126 13.9986 1.78835C14.1869 1.61871 14.4 1.46117 14.6203 1.34181C14.6693 1.31556 14.6655 1.39579 14.6907 1.3859C14.8018 1.34186 14.7542 1.23079 14.8608 1.18825C14.8832 1.17936 14.9029 1.23068 14.9098 1.2331C15.017 1.27154 14.9916 1.13134 15.0045 1.11911C15.1652 0.965342 15.3576 1.00627 15.5281 0.883401C15.5484 0.868528 15.4646 0.838926 15.5248 0.800688C15.9252 0.54639 16.3974 0.339768 16.8663 0.240722C16.9384 0.225648 16.9051 0.290021 16.9113 0.294797C16.9359 0.311808 16.9549 0.316134 16.97 0.313262C16.9738 0.298295 16.9776 0.283692 16.9808 0.26955C16.982 0.264049 16.9826 0.258264 16.9836 0.252969C16.9832 0.256549 16.9826 0.260704 16.9821 0.265405C16.9816 0.275317 16.9805 0.289179 16.9806 0.309682C17.018 0.291431 17.0263 0.222064 17.0415 0.213779C17.2146 0.124912 17.4104 0.193514 17.5121 0.0165103C17.5534 0.0118034 17.5945 0.00731414 17.6353 0.0033214ZM12.3601 15.7632C12.4193 15.7114 12.3246 15.655 12.3078 15.7323C12.3074 15.7358 12.3573 15.7655 12.3601 15.7632ZM13.7976 14.9869C13.7399 14.9814 13.6955 15.0943 13.7691 15.1005C13.8278 15.1062 13.8703 14.9933 13.7976 14.9869ZM14.4696 14.254C14.6113 14.2154 14.3753 13.9864 14.3399 14.1266C14.3382 14.135 14.4614 14.2562 14.4696 14.254ZM15.0839 13.2013C14.9756 13.2116 15.0744 13.3684 15.1194 13.3617C15.268 13.3384 15.1914 13.192 15.0839 13.2013ZM18.4343 8.91076C18.468 9.00824 18.4357 9.08997 18.3263 9.0988C18.3637 9.03727 18.3976 8.97297 18.4343 8.91076ZM19.8971 4.63848C19.8331 4.58829 19.7979 4.71338 19.8789 4.70424C19.8824 4.7027 19.8997 4.64063 19.8971 4.63848ZM19.5962 4.68502C19.6765 4.62219 19.4528 4.5588 19.4873 4.65374C19.4892 4.65841 19.5922 4.68828 19.5962 4.68502ZM17.2686 2.05552C17.2286 2.01012 17.1898 2.03495 17.168 2.07662C17.1897 2.0706 17.2279 2.07423 17.2642 2.08002C17.2676 2.06644 17.2695 2.05691 17.2686 2.05552ZM19.3967 1.5826C19.399 1.57992 19.3906 1.58169 19.376 1.58769C19.3888 1.58582 19.3951 1.58346 19.3967 1.5826ZM19.1627 1.04544C19.1604 1.04236 19.116 1.05649 19.1241 1.07426C19.1518 1.13021 19.201 1.09287 19.1627 1.04544ZM16.9836 0.252969C16.986 0.232356 16.9878 0.229229 16.9878 0.229229C16.9883 0.230702 16.986 0.240788 16.9836 0.252969Z" fill="#181818" />
    <path d="M31.9709 13.7546C32.0016 13.809 32.0139 13.9154 31.9782 13.991C31.9426 14.0661 31.9169 14.0813 31.8898 14.1049C31.8329 14.1457 31.817 14.146 31.7971 14.1542C31.7563 14.1674 31.7411 14.1687 31.7198 14.1724C31.6821 14.178 31.6519 14.1797 31.6263 14.1811C31.5698 14.1842 31.523 14.1847 31.4731 14.1852C31.3759 14.1859 31.2831 14.1852 31.1899 14.1846C31.1546 14.1843 31.1193 14.1839 31.0842 14.1836C30.9344 14.1824 30.7858 14.181 30.6385 14.1782C30.3849 14.1752 30.1226 14.16 29.8786 14.1455C29.8789 14.1975 29.801 14.2505 29.8072 14.2634C29.8618 14.372 30.0222 14.0962 30.1414 14.1717C30.145 14.1746 30.0972 14.2139 30.1043 14.2253C30.1258 14.2605 30.1686 14.26 30.1891 14.2968C30.2341 14.3804 30.1766 14.5271 30.3326 14.5191C30.3526 14.5179 30.43 14.3527 30.5336 14.4289C30.5753 14.4594 30.7684 14.5815 30.8155 14.6279C30.8623 14.6735 30.7931 14.6968 30.7951 14.7016C30.8936 14.8618 30.822 14.8519 30.8254 14.9934C30.8272 15.1339 30.9676 14.9015 31.0144 14.8977C31.061 14.8938 31.126 15.0221 31.1356 15.0582C31.1461 15.0945 31.0926 15.0996 31.1067 15.1265C31.196 15.3029 31.2539 15.0724 31.3304 15.0795C31.5117 15.1 31.4642 15.3314 31.5312 15.4459C31.5494 15.4776 31.5668 15.4249 31.5919 15.4508C31.6399 15.5021 31.6609 15.5593 31.679 15.6201C31.6955 15.6839 31.7199 15.7459 31.7238 15.8643C31.7238 15.8807 31.7375 15.931 31.7211 15.9944C31.7182 16.0476 31.6975 16.1076 31.6301 16.1141C31.6132 16.1151 31.5911 16.0611 31.5492 16.098C31.4871 16.1533 31.3811 16.256 31.3317 16.326C31.2942 16.3792 31.4055 16.3878 31.3274 16.4257C31.2926 16.4417 31.3093 16.3613 31.2474 16.3936C31.1868 16.4262 31.0526 16.5342 31.0023 16.5697C30.9512 16.6073 31.0152 16.639 31.0135 16.6454C31.0018 16.6836 30.9096 16.7779 30.899 16.7835C30.4075 17.0844 29.8844 17.1358 29.3715 17.2847C29.3322 17.2958 29.3724 17.3542 29.3668 17.3569C29.2338 17.4127 29.3069 17.2188 29.1998 17.1803C29.2398 17.3087 29.1784 17.2966 29.0815 17.3286C29.0347 17.3441 29.0696 17.3905 29.0662 17.3966C29.0074 17.4866 28.9392 17.3944 28.9232 17.376C28.8618 17.3083 28.8278 17.4046 28.7883 17.3586C28.7499 17.3128 28.8107 17.2285 28.7183 17.2423C28.6988 17.2934 28.7859 17.4076 28.717 17.4375C28.4497 17.5537 27.928 17.4964 27.7024 17.4941C27.4854 17.4933 27.4136 17.5031 27.2843 17.4883C27.05 17.46 27.135 17.5516 26.9923 17.5943C26.8483 17.6362 26.9197 17.4081 26.8995 17.359C26.8799 17.3098 26.8575 17.36 26.8328 17.3327C26.8084 17.3055 26.8625 17.2728 26.8042 17.2619C26.7463 17.2513 26.5831 17.3351 26.5601 17.3856C26.5124 17.493 26.5824 17.6095 26.4248 17.5644C26.4161 17.5616 26.447 17.5027 26.4132 17.4954C26.1457 17.44 25.8525 17.4203 25.5882 17.3591C25.5515 17.3505 25.5899 17.2866 25.5686 17.2808C25.3464 17.2203 25.418 17.3388 25.2817 17.4526C25.3248 17.2892 25.2644 17.1821 25.0935 17.1644C24.9917 17.1536 25.0017 17.2278 24.9299 17.2719C24.9083 17.285 24.8411 17.2277 24.8241 17.2602C24.7681 17.3664 24.8233 17.4988 24.6507 17.4291C24.6431 17.4258 24.6751 17.3678 24.6485 17.361C24.4773 17.3165 24.4407 17.4298 24.2516 17.4197C24.1029 17.4117 23.8502 17.3041 23.6846 17.2668C23.7166 17.0823 23.554 17.1006 23.4693 17.2175C23.362 17.195 23.2439 17.1827 23.1424 17.147C23.1075 17.1348 23.1406 17.0854 23.137 17.0788C23.0837 16.9764 23.0147 17.0917 22.9906 17.0924C22.7297 17.0944 22.5431 16.9618 22.285 17.0045C22.2757 17.0066 22.2356 17.1304 22.1907 17.0244C22.188 17.0172 22.279 16.9756 22.1672 16.9478C22.0552 16.92 21.8586 16.8068 21.6902 16.8307C21.6496 16.8366 21.5299 16.9175 21.4719 16.8194C21.4644 16.8061 21.4839 16.7724 21.474 16.7488C21.4417 16.6736 21.3854 16.7952 21.3557 16.6735C21.3259 16.5517 21.2312 16.4434 21.0582 16.4798C21.0527 16.4807 20.9908 16.5726 20.9421 16.5588C20.8641 16.5364 20.7584 16.4869 20.6769 16.4662C20.6378 16.4564 20.6461 16.5255 20.639 16.5248C20.3678 16.4909 20.1965 16.384 19.9245 16.2794C19.8749 16.2602 19.7031 16.3017 19.6261 16.2055C19.5396 16.0991 19.7441 15.8302 19.4751 15.826C19.3677 15.8241 19.1165 16.1675 19.0051 15.9108C18.6374 15.8436 18.3608 15.6323 17.993 15.5708C17.9766 15.5682 17.8878 15.6541 17.8527 15.639C17.8009 15.6162 17.7912 15.5559 17.7533 15.5372C17.5966 15.458 17.434 15.4395 17.2873 15.3691C17.2319 15.3425 17.2732 15.3011 17.2044 15.2678C17.1359 15.2346 17.0598 15.2794 16.9816 15.206C16.9227 15.1503 16.9165 14.9862 16.8361 14.929C16.7714 15.0581 16.7059 15.0241 16.5766 15.0028C16.5516 14.9987 16.5522 15.0553 16.5392 15.0557C16.4858 15.0581 16.4664 15.0017 16.4147 15.0071C16.4021 15.0084 16.379 15.0519 16.3674 15.0554C16.2669 15.0857 16.2159 14.9332 16.2035 14.9046C16.1655 14.8011 16.1013 14.8389 16.0611 14.7835C16.0216 14.7283 16.1195 14.7417 16.0659 14.6914C15.9575 14.589 15.7898 14.4984 15.665 14.4148C15.6159 14.3823 15.6133 14.4586 15.6055 14.4556C15.4943 14.4034 15.4321 14.2744 15.2965 14.3379C15.4303 14.0143 15.213 14.3194 15.1189 14.1575C15.1118 14.1445 15.2018 14.0109 15.2551 14.0236C15.3081 14.0361 15.3383 14.123 15.4195 14.137C15.439 14.1406 15.6077 14.0766 15.6241 14.0765C15.7491 14.0767 15.6243 14.2794 15.6217 14.2948C15.5935 14.4474 15.7863 14.3782 15.8193 14.3852C15.9766 14.4225 16.0569 14.508 16.1829 14.5368C16.2646 14.5552 16.3479 14.4217 16.4007 14.4559C16.5747 14.567 16.5343 14.7918 16.7985 14.7101C16.8545 14.6922 16.8934 14.521 16.969 14.7065C16.9732 14.7181 17.0192 14.8757 17.1108 14.8317C17.1222 14.8261 17.1431 14.7806 17.1545 14.7811C17.2303 14.7858 17.2574 14.8417 17.3373 14.8561C17.4184 14.871 17.5142 14.8812 17.5879 14.9306C17.6323 14.9604 17.6596 15.0726 17.6748 15.1035C17.7171 15.1919 17.8314 15.1218 17.8442 15.2125C17.8577 15.3039 17.7266 15.3826 17.8223 15.4761C17.8748 15.3572 17.9341 15.2371 17.9888 15.1183C18.2223 15.215 18.4598 15.3479 18.704 15.4275C18.7348 15.4374 18.7271 15.3606 18.7606 15.3694C18.9021 15.4071 19.0088 15.496 19.162 15.5256C19.2778 15.5473 19.4233 15.5164 19.5467 15.5355C19.5729 15.6995 19.7682 15.707 19.8894 15.757C19.9326 15.7747 19.9183 15.8117 19.9464 15.8335C20.053 15.9146 20.0341 15.7725 20.0727 15.7621C20.2389 15.7183 20.1683 16.0073 20.3407 16.0477C20.3506 16.05 20.5012 15.9273 20.5186 15.9218C20.6303 15.8855 20.5197 15.9791 20.5759 16.0065C20.679 16.0564 20.7455 16.1132 20.8862 16.1016C20.9273 16.098 21.0424 16.0254 21.0962 16.1174C21.1033 16.1295 21.0852 16.179 21.0921 16.184C21.219 16.2682 21.2627 16.1093 21.3554 16.0745C21.448 16.0396 21.5447 16.1789 21.5626 16.2167C21.6092 16.3144 21.5037 16.2401 21.4982 16.2473C21.4333 16.3336 21.5277 16.3385 21.5952 16.3626C21.5685 16.5219 21.6684 16.5348 21.6655 16.3869C21.665 16.3708 21.6076 16.373 21.5952 16.3626C21.6925 16.2227 21.8021 16.2269 21.8871 16.3971C21.9271 16.4767 21.8575 16.5444 22.032 16.5518C22.1111 16.555 22.1051 16.4404 22.1785 16.4249C22.346 16.3897 22.5246 16.5315 22.6867 16.5459C22.7454 16.5511 22.7011 16.4806 22.7415 16.4821C22.8487 16.4858 22.9323 16.5476 23.0412 16.5435C23.0511 16.5431 23.0396 16.4764 23.0722 16.4814C23.3203 16.5183 23.5292 16.5945 23.787 16.6351C23.9123 16.6549 24.1416 16.6524 24.2698 16.6765C24.4903 16.7183 24.7603 16.8436 24.9546 16.8413C25.0814 16.8401 25.0605 16.7737 25.1181 16.7359C25.2289 16.6628 25.4002 16.8291 25.423 16.8543C25.4212 16.8553 25.3144 16.861 25.3688 16.8981C25.3964 16.9683 25.4214 16.8564 25.423 16.8543C25.4382 16.871 25.653 16.9025 25.6963 16.8931C25.7199 16.8881 25.7114 16.8272 25.7236 16.8257C26.0164 16.7925 26.3023 16.7919 26.5934 16.8277C26.5986 16.829 26.5891 16.8961 26.6012 16.8985C26.7712 16.9326 26.8806 16.8512 27.0169 16.8025C27.1525 16.7536 27.2655 16.7683 27.3494 16.8822C27.4539 16.8656 27.6035 16.9114 27.6895 16.9384C27.7793 16.9652 27.7842 16.8333 27.7917 16.8303C28.0258 16.7336 28.153 16.7992 28.4022 16.7844C28.5205 16.7778 28.7343 16.73 28.8567 16.6949C28.9518 16.6676 29.0148 16.6874 29.0973 16.6514C29.1084 16.6465 29.0855 16.592 29.0884 16.5887C29.1689 16.5013 29.1523 16.6501 29.1772 16.6712C29.2665 16.7472 29.3252 16.7858 29.4411 16.7126C29.4685 16.6957 29.4979 16.4756 29.5422 16.4506C29.6008 16.4184 29.598 16.496 29.6581 16.4596C29.6634 16.4564 29.648 16.4136 29.6894 16.403C29.8866 16.3509 30.0853 16.3039 30.2614 16.2125C30.2846 16.2006 30.2227 16.1505 30.2548 16.1325C30.4013 16.0499 30.5586 15.9542 30.6958 15.8842C30.7305 15.8666 30.7452 15.9201 30.7613 15.9263C30.8527 15.9571 30.8322 15.8401 30.8305 15.8107C30.7809 15.8029 30.7294 15.7801 30.7467 15.705C30.7499 15.697 30.7798 15.5608 30.6827 15.5935C30.6767 15.5956 30.6681 15.6697 30.6182 15.6234C30.567 15.5762 30.4514 15.5452 30.4088 15.4306C30.396 15.3947 30.4028 15.2492 30.2663 15.2775C30.2564 15.2795 30.0086 15.3839 30.047 15.2258C30.0534 15.1998 30.1503 15.0678 30.0046 15.0742C29.9764 15.0756 29.9918 15.1284 29.9285 15.1152C29.833 15.0961 29.7501 14.9926 29.6124 14.9915C29.5871 14.9909 29.4541 15.0373 29.4374 14.9263C29.4352 14.9092 29.4828 14.8753 29.4546 14.8496C29.3852 14.7873 29.3113 14.7401 29.2185 14.6724C29.1727 14.638 29.1266 14.6051 29.0545 14.5335C29.0391 14.5178 29.0161 14.4938 28.9898 14.4615C28.9617 14.4243 28.9434 14.4083 28.8912 14.3078C28.8689 14.2617 28.8453 14.2032 28.831 14.1244C28.8136 14.0441 28.8117 13.8725 28.8779 13.733C29.033 13.4352 29.1946 13.4082 29.2986 13.3666C29.314 13.3628 29.3288 13.3599 29.3429 13.3574C29.416 13.3453 29.4258 13.3708 29.4458 13.3936C29.4628 13.4174 29.4865 13.4411 29.53 13.4465C29.6248 13.4556 29.7705 13.4683 29.8429 13.425C29.9145 13.3817 29.8285 13.2448 29.9396 13.2296C30.1312 13.2047 30.3164 13.206 30.4968 13.2167C30.3723 13.1139 30.3241 12.9887 30.1974 12.8933C30.1678 12.8714 30.1474 12.9434 30.1229 12.9244C30.0387 12.8598 29.9764 12.763 29.896 12.6996C29.8598 12.6713 29.8327 12.7146 29.8034 12.6841C29.7334 12.6123 29.6786 12.5392 29.631 12.44C29.6267 12.4309 29.7142 12.4206 29.6569 12.3714C29.564 12.2921 29.4701 12.1607 29.3263 12.1151C29.2834 12.1017 29.2136 12.1935 29.1876 12.0768C29.182 12.0525 29.2828 11.9536 29.1264 11.99C29.0998 11.9952 28.863 12.0283 28.8492 11.8947C28.8455 11.8594 28.859 11.7325 28.806 11.7195C28.7986 11.7184 28.7877 11.7848 28.7491 11.7671C28.6134 11.7039 28.4841 11.6166 28.3426 11.5559C28.3049 11.5399 28.3241 11.6255 28.2691 11.6C28.1177 11.5301 27.9447 11.4159 27.8101 11.3229C27.7607 11.2886 27.8221 11.2607 27.8209 11.2536C27.8021 11.1378 27.7058 11.2312 27.6818 11.2274C27.5327 11.2016 27.4596 11.1 27.3319 11.0579C27.297 11.0463 27.2948 11.1115 27.2859 11.1136C27.1952 11.1298 27.2921 11.0549 27.2534 11.024C27.1446 10.9371 27.0044 10.8815 26.8757 10.8372C26.8285 10.8211 26.8532 10.9069 26.8115 10.8919C26.5624 10.8038 26.3101 10.7058 26.08 10.5941C26.0364 10.573 26.0811 10.5302 26.0752 10.5155C26.0332 10.4123 25.9024 10.497 25.8779 10.502C25.7634 10.5233 25.7359 10.467 25.6456 10.4539C25.3193 10.4069 24.9459 10.3365 24.6358 10.3176C24.5931 10.3141 24.5285 10.3122 24.4735 10.3115C24.4204 10.3106 24.3602 10.311 24.3013 10.3123C23.7453 10.3275 23.2698 10.3449 22.7194 10.4497C22.6843 10.4564 22.7319 10.5211 22.7019 10.5278C22.3119 10.6119 21.9205 10.6597 21.5354 10.7649C21.5038 10.7735 21.5646 10.8298 21.5144 10.8458C21.4106 10.8792 21.2776 10.9055 21.167 10.9091C21.113 10.911 21.1687 10.8379 21.1144 10.8411C20.9876 10.8485 20.8562 10.8755 20.7352 10.9172C20.6836 10.9352 20.7804 10.9826 20.7122 11.0007C20.2473 11.126 19.7998 11.2657 19.3129 11.3295C19.2797 11.3339 19.2069 11.2088 19.1481 11.2571C19.1557 11.296 19.1708 11.3396 19.1821 11.38C18.5311 11.6228 17.8809 11.8274 17.2818 12.1371C17.2567 12.1502 17.3353 12.1932 17.2873 12.2188C17.0143 12.3651 16.77 12.5397 16.4884 12.6609C16.46 12.6736 16.3898 12.5599 16.3316 12.632C16.3203 12.6451 16.2322 12.742 16.2257 12.7872C16.2253 12.7934 16.2842 12.8233 16.2543 12.8526C16.0845 13.0185 15.922 13.1857 15.7925 13.3393C15.771 13.3648 15.7304 13.3024 15.7143 13.3212C15.5989 13.4596 15.5974 13.6337 15.5286 13.7751C15.4835 13.8757 15.3713 13.8348 15.2602 13.9034C15.2442 13.9135 15.248 13.9932 15.1842 14.0054C15.0941 14.023 14.9971 14.0216 14.8991 14.0233C14.8798 14.0646 14.8391 14.0749 14.7795 14.0286C14.7413 14.0317 14.7033 14.0364 14.6659 14.0446C14.6277 14.053 14.6903 14.2045 14.5867 14.1238C14.579 14.1183 14.5362 14.005 14.5044 13.9768C14.4819 13.9572 14.4175 13.9994 14.3878 13.957C14.3585 13.9136 14.4124 13.8645 14.3821 13.792C14.3529 13.7164 14.2725 13.7455 14.279 13.5893C14.2925 13.223 14.4962 12.787 14.6978 12.542C14.7603 12.4635 14.7668 12.5284 14.8119 12.4772C14.9026 12.3762 14.9574 12.2758 15.0551 12.1939C15.0874 12.1675 15.1024 12.2485 15.1348 12.2203C15.309 12.0707 15.455 11.9152 15.6308 11.7904C16.5152 11.1785 17.4287 10.814 18.3726 10.4931C18.6857 10.3886 19.0813 10.3197 19.3965 10.1977C19.4331 10.1834 19.394 10.1358 19.3998 10.1291C19.4918 10.0265 19.4878 10.1477 19.5656 10.1406C19.8746 10.1124 20.1994 10.0298 20.4782 9.93704C20.596 9.89768 20.4478 9.81825 20.5845 9.84966C20.5939 9.85184 20.5783 9.91767 20.6126 9.91589C20.6896 9.9117 20.8316 9.86657 20.8905 9.85774C21.0048 9.84077 21.0226 9.836 21.1285 9.8127C21.2765 9.78077 21.4524 9.77342 21.6072 9.72747C21.6402 9.71748 21.5829 9.66595 21.6345 9.64456C21.6863 9.62308 21.8283 9.60002 21.8781 9.60522C21.9279 9.61035 21.9175 9.66198 21.9279 9.67138C22.0157 9.74995 22.1556 9.59149 22.176 9.58423C22.5516 9.45936 22.8933 9.47901 23.2598 9.42807C23.5345 9.38991 23.8315 9.33038 24.1022 9.31209C24.282 9.30035 24.4764 9.30174 24.654 9.31345C24.7771 9.32166 24.9044 9.33387 25.0339 9.34485C25.0681 9.3479 25.0357 9.27117 25.0781 9.27493C25.5245 9.31625 25.9474 9.42426 26.3439 9.59573C26.3837 9.61318 26.3116 9.65787 26.3502 9.6789C26.5857 9.80432 26.9164 10.0611 27.1645 9.86182C27.3243 9.93693 27.5176 10.0323 27.637 10.1485C27.7139 10.2234 27.5957 10.2456 27.7201 10.2705C27.7479 10.276 27.7414 10.2057 27.7815 10.2185C27.9516 10.2737 28.1154 10.3775 28.2854 10.4311C28.32 10.4418 28.3373 10.3889 28.3509 10.385C28.4644 10.3546 28.5263 10.5384 28.5479 10.5617C28.7175 10.7378 28.8781 10.7997 29.0628 10.9159C29.1056 10.943 29.094 10.8493 29.1367 10.8733C29.3574 10.9986 29.5742 11.151 29.7567 11.3221C29.797 11.3603 29.7189 11.3815 29.7362 11.4022C29.8127 11.4935 29.9044 11.4142 29.9781 11.5017C29.9936 11.5201 29.9505 11.5546 29.9503 11.5618C29.9466 11.6749 30.0731 11.6076 30.0888 11.616C30.2858 11.7201 30.306 11.9144 30.4764 12.0374C30.497 12.052 30.4994 11.9637 30.5547 12.0088C30.9221 12.3081 31.266 12.69 31.5058 13.1021C31.5425 13.1654 31.4705 13.1539 31.4679 13.1613C31.4592 13.1897 31.4609 13.209 31.4683 13.2223C31.4838 13.2213 31.499 13.2204 31.5135 13.219C31.5192 13.2185 31.5249 13.2173 31.5303 13.2166C31.5268 13.2173 31.5226 13.218 31.5179 13.219C31.5083 13.2215 31.4946 13.2248 31.475 13.2313C31.5041 13.261 31.5731 13.2473 31.5858 13.2591C31.7244 13.3951 31.7192 13.6011 31.9202 13.6424C31.9375 13.68 31.9545 13.7173 31.9709 13.7546ZM15.2399 13.6449C15.3078 13.6848 15.3326 13.578 15.2534 13.5861C15.2498 13.5868 15.2368 13.6431 15.2399 13.6449ZM16.4279 14.7621C16.4154 14.7059 16.2934 14.6989 16.3103 14.7703C16.323 14.8274 16.4443 14.8327 16.4279 14.7621ZM17.3379 15.1699C17.4186 15.2918 17.5651 14.9982 17.4198 15.0082C17.4113 15.0091 17.3332 15.1629 17.3379 15.1699ZM18.5363 15.4245C18.493 15.3255 18.3733 15.4673 18.3937 15.5076C18.4619 15.6407 18.5785 15.5231 18.5363 15.4245ZM23.6828 17.2614C23.5998 17.3233 23.5115 17.3181 23.4693 17.2175C23.5398 17.2339 23.6119 17.246 23.6828 17.2614ZM28.2285 17.322C28.2568 17.2461 28.1261 17.2516 28.1598 17.3252C28.1624 17.328 28.2272 17.3252 28.2285 17.322ZM28.0909 17.0524C28.1759 17.1088 28.1675 16.878 28.0872 16.9399C28.0833 16.9431 28.0866 17.0496 28.0909 17.0524ZM29.8912 14.0426C29.9223 13.9908 29.8865 13.9619 29.8399 13.9541C29.8524 13.9728 29.8607 14.01 29.8664 14.046C29.8804 14.0451 29.8902 14.0439 29.8912 14.0426ZM31.002 15.9054C31.0052 15.9067 31.001 15.8994 30.9907 15.8874C30.9964 15.8989 31.0006 15.9041 31.002 15.9054ZM31.4443 15.5184C31.4466 15.5154 31.4193 15.4778 31.4048 15.491C31.3598 15.5344 31.4107 15.5693 31.4443 15.5184ZM31.5303 13.2166C31.5508 13.2124 31.5543 13.2132 31.5543 13.2132C31.5531 13.2141 31.5427 13.2151 31.5303 13.2166Z" fill="#181818" />
    <path d="M23.2245 31.5365C23.182 31.5823 23.0838 31.6268 23.0003 31.6165C22.9173 31.606 22.8948 31.5865 22.8638 31.5682C22.8072 31.5271 22.802 31.5121 22.788 31.4959C22.7627 31.4615 22.7568 31.4476 22.7467 31.4286C22.7296 31.3948 22.7186 31.3667 22.7094 31.343C22.689 31.2906 22.6741 31.2466 22.6582 31.1997C22.6274 31.1082 22.5994 31.0203 22.5712 30.9322C22.5605 30.8987 22.5501 30.8653 22.5395 30.8321C22.4944 30.6903 22.4498 30.5496 22.407 30.4097C22.3314 30.1694 22.265 29.917 22.2034 29.6822C22.1537 29.6985 22.0788 29.6415 22.0684 29.6513C21.9812 29.7364 22.2951 29.8026 22.2596 29.9384C22.2579 29.9426 22.2055 29.9097 22.1967 29.9199C22.1696 29.9511 22.1834 29.9914 22.1545 30.0221C22.0882 30.0904 21.9299 30.0815 21.9857 30.2262C21.9931 30.2447 22.1753 30.2667 22.1343 30.3881C22.1179 30.4369 22.0606 30.6569 22.0308 30.7157C22.0015 30.774 21.9578 30.7158 21.9538 30.7192C21.8307 30.8617 21.8181 30.7911 21.6836 30.8379C21.5495 30.8831 21.8156 30.9439 21.8337 30.9869C21.8518 31.0297 21.749 31.1306 21.7174 31.1508C21.6858 31.172 21.6644 31.123 21.6429 31.1446C21.5015 31.2834 21.7403 31.2669 21.7571 31.3413C21.7935 31.5188 21.5571 31.5454 21.4681 31.644C21.4433 31.6711 21.4992 31.6712 21.4821 31.7029C21.4478 31.7641 21.3995 31.8015 21.3469 31.8374C21.2908 31.8727 21.239 31.915 21.1267 31.9552C21.111 31.9603 21.067 31.9887 21.0012 31.9928C20.9494 32.0066 20.8855 32.0056 20.8585 31.944C20.8522 31.9283 20.8971 31.8908 20.8489 31.8626C20.7766 31.8211 20.6454 31.7527 20.5631 31.7277C20.5006 31.7087 20.5267 31.8165 20.4663 31.7544C20.4402 31.7266 20.5224 31.7175 20.4723 31.669C20.4224 31.622 20.2774 31.5286 20.2278 31.4921C20.176 31.4554 20.1654 31.5257 20.1588 31.526C20.1186 31.5268 19.9997 31.4689 19.9911 31.4607C19.5509 31.0897 19.34 30.6117 19.0389 30.1736C19.0161 30.14 18.9725 30.1959 18.9682 30.1915C18.8736 30.0831 19.082 30.0923 19.0858 29.9793C18.9751 30.0566 18.9678 29.995 18.9071 29.9134C18.8778 29.874 18.8441 29.9213 18.8373 29.92C18.7328 29.8923 18.8001 29.7994 18.8128 29.7786C18.8587 29.6998 18.7559 29.6974 18.7878 29.6459C18.8198 29.5955 18.9194 29.6268 18.8776 29.5439C18.8226 29.5412 18.74 29.6587 18.6901 29.6029C18.4961 29.3865 18.3899 28.8764 18.3224 28.6627C18.2561 28.4576 18.2246 28.3929 18.1988 28.2662C18.1535 28.0363 18.092 28.1449 18.0069 28.0234C17.9223 27.9003 18.1629 27.8973 18.2037 27.863C18.2448 27.8293 18.1898 27.8237 18.2083 27.792C18.2268 27.7605 18.2749 27.8014 18.2673 27.7431C18.2596 27.6851 18.1289 27.557 18.0733 27.5509C17.9557 27.539 17.8657 27.6411 17.8603 27.4784C17.8602 27.4693 17.9262 27.4803 17.9228 27.4462C17.8932 27.1765 17.8215 26.8936 17.7984 26.6252C17.7953 26.5879 17.8684 26.6044 17.8673 26.5825C17.8567 26.3541 17.7652 26.4583 17.6141 26.3648C17.784 26.355 17.8679 26.2649 17.8321 26.0981C17.811 25.9987 17.743 26.031 17.6786 25.9769C17.6593 25.9605 17.6934 25.8793 17.657 25.8734C17.538 25.8533 17.4282 25.9464 17.4416 25.7618C17.4424 25.7537 17.5079 25.766 17.5062 25.7388C17.496 25.5634 17.376 25.5638 17.3273 25.3822C17.289 25.2394 17.3141 24.9676 17.2986 24.7997C17.4852 24.7729 17.4175 24.6251 17.2793 24.5812C17.2678 24.473 17.243 24.3577 17.2458 24.2509C17.2467 24.2142 17.3043 24.2301 17.3095 24.2248C17.3912 24.1428 17.2594 24.1133 17.2513 24.0907C17.1688 23.8451 17.2381 23.628 17.1174 23.3975C17.1125 23.3894 16.9816 23.3897 17.0692 23.3147C17.0753 23.3098 17.1433 23.3829 17.1354 23.2688C17.1274 23.1544 17.1751 22.9339 17.1002 22.7823C17.082 22.7458 16.9674 22.6578 17.0435 22.5728C17.054 22.5616 17.0923 22.5696 17.1118 22.5529C17.1739 22.4992 17.04 22.4836 17.1475 22.4179C17.255 22.3522 17.3295 22.2294 17.2411 22.0772C17.2385 22.0723 17.1314 22.0423 17.1295 21.9921C17.1269 21.9116 17.1417 21.7964 17.1363 21.7131C17.1336 21.6732 17.07 21.7023 17.0684 21.6955C17.0171 21.429 17.0666 21.2343 17.0828 20.9452C17.0858 20.8924 16.993 20.7431 17.0614 20.6406C17.1366 20.5261 17.4575 20.636 17.3783 20.3809C17.347 20.2788 16.9403 20.1478 17.1518 19.9634C17.1027 19.5955 17.2196 19.2691 17.1649 18.9029C17.1624 18.8866 17.0526 18.8294 17.0561 18.7915C17.062 18.7356 17.1168 18.7078 17.123 18.6662C17.1505 18.4938 17.118 18.3346 17.1401 18.1744C17.1484 18.1139 17.2009 18.1401 17.2115 18.0649C17.2222 17.9899 17.1558 17.9319 17.2019 17.8354C17.2371 17.7626 17.3924 17.7061 17.4223 17.6124C17.2786 17.5914 17.291 17.5189 17.2715 17.3903C17.2677 17.3655 17.2136 17.3835 17.2092 17.3713C17.1904 17.3216 17.2385 17.2859 17.2174 17.2388C17.2122 17.2274 17.1633 17.219 17.1564 17.2091C17.0963 17.1236 17.2266 17.0283 17.2503 17.0078C17.3377 16.9399 17.2817 16.891 17.3223 16.8359C17.363 16.7816 17.3804 16.8782 17.412 16.812C17.4766 16.678 17.5116 16.4918 17.5532 16.348C17.5691 16.2916 17.4952 16.3128 17.4957 16.3045C17.5113 16.1835 17.6157 16.0848 17.513 15.9764C17.8644 16.0028 17.5049 15.8919 17.631 15.753C17.6412 15.7424 17.797 15.786 17.8013 15.8402C17.8058 15.8942 17.7318 15.9495 17.7435 16.0305C17.7461 16.05 17.8595 16.1895 17.8646 16.2049C17.9031 16.323 17.6703 16.2678 17.6547 16.2701C17.4999 16.2907 17.6258 16.4513 17.6292 16.4846C17.6421 16.6446 17.585 16.7468 17.5963 16.8747C17.604 16.9574 17.7575 16.9948 17.7412 17.0553C17.6884 17.2538 17.4606 17.2852 17.6205 17.5094C17.655 17.5567 17.831 17.5405 17.6767 17.6691C17.6668 17.6767 17.53 17.7689 17.6005 17.8417C17.6094 17.8508 17.6595 17.8564 17.6624 17.8673C17.6814 17.9404 17.6362 17.9831 17.6471 18.0631C17.6579 18.1442 17.6777 18.2378 17.6531 18.3226C17.6383 18.3738 17.5392 18.4342 17.5143 18.4581C17.4427 18.5253 17.5452 18.6116 17.4622 18.6517C17.3788 18.6926 17.2629 18.5932 17.2029 18.7125C17.3331 18.7253 17.4664 18.7442 17.5972 18.7591C17.5767 19.0094 17.5227 19.2747 17.5219 19.5298C17.5219 19.5619 17.5932 19.5309 17.5951 19.5653C17.6027 19.7105 17.5505 19.8387 17.5694 19.9925C17.5844 20.1085 17.659 20.2362 17.6788 20.3586C17.5298 20.4341 17.583 20.6208 17.5725 20.7506C17.5689 20.7969 17.529 20.7948 17.5168 20.8281C17.4721 20.9538 17.6024 20.892 17.6243 20.9252C17.7176 21.0685 17.4189 21.0912 17.4334 21.2664C17.4343 21.2765 17.5984 21.3808 17.6091 21.3955C17.6783 21.4897 17.5544 21.4142 17.5456 21.4757C17.5297 21.5884 17.4958 21.6688 17.5504 21.7981C17.5665 21.8357 17.6716 21.9219 17.6001 22.0012C17.5907 22.0116 17.5377 22.0098 17.535 22.0178C17.4936 22.1637 17.6593 22.1559 17.7213 22.2326C17.7833 22.3092 17.6798 22.4435 17.6491 22.4721C17.5698 22.5463 17.6084 22.4237 17.5998 22.4208C17.4971 22.3861 17.5216 22.4768 17.5193 22.548C17.3585 22.572 17.377 22.6703 17.5177 22.6218C17.5331 22.6164 17.5132 22.5629 17.5193 22.548C17.6834 22.5966 17.7133 22.7014 17.5765 22.8342C17.5125 22.8966 17.4262 22.8517 17.473 23.0188C17.4944 23.0945 17.6024 23.0534 17.6399 23.1179C17.7254 23.2651 17.6448 23.4775 17.681 23.635C17.6941 23.692 17.748 23.6284 17.7591 23.667C17.7887 23.7693 17.7553 23.8673 17.7928 23.9689C17.7963 23.9781 17.8566 23.9466 17.8619 23.979C17.9032 24.2245 17.8948 24.4453 17.9356 24.7011C17.9553 24.8256 18.0285 25.0413 18.0451 25.1697C18.0732 25.3908 18.0365 25.6844 18.0988 25.8672C18.1391 25.9865 18.1963 25.9461 18.2503 25.9889C18.3546 26.0709 18.2481 26.284 18.231 26.3133C18.2295 26.3119 18.1911 26.2129 18.1723 26.2757C18.1136 26.3234 18.2286 26.3124 18.231 26.3133C18.2198 26.3328 18.256 26.5453 18.2783 26.5833C18.2904 26.604 18.3462 26.5771 18.3513 26.5882C18.4736 26.8544 18.5626 27.124 18.6182 27.4099C18.6185 27.4152 18.5513 27.427 18.5528 27.4392C18.5726 27.6102 18.6844 27.6883 18.7733 27.8019C18.862 27.9148 18.8828 28.026 18.7996 28.1404C18.8478 28.2339 18.8501 28.3893 18.8509 28.4788C18.8529 28.5718 18.9808 28.5357 18.986 28.5419C19.151 28.733 19.1275 28.8733 19.2186 29.104C19.2616 29.2136 19.3734 29.4007 19.4449 29.5054C19.5004 29.5867 19.5009 29.6523 19.5609 29.7191C19.569 29.728 19.6142 29.6896 19.6182 29.6912C19.7268 29.7402 19.5791 29.7706 19.5667 29.8006C19.5214 29.9084 19.5026 29.9757 19.6085 30.0625C19.6331 30.0832 19.8532 30.0429 19.8907 30.077C19.9398 30.1223 19.8645 30.1436 19.9179 30.1892C19.9226 30.1932 19.9589 30.1655 19.9819 30.2012C20.0927 30.3713 20.1992 30.5443 20.3411 30.6823C20.3597 30.7005 20.3886 30.6266 20.4158 30.6513C20.5402 30.7641 20.6805 30.8831 20.79 30.991C20.8176 31.0182 20.7708 31.0486 20.7699 31.0658C20.7686 31.1616 20.8744 31.1061 20.902 31.0953C20.8942 31.0462 20.9001 30.9905 20.9775 30.9836C20.9861 30.9842 21.1258 30.9703 21.0645 30.8887C21.0606 30.8837 20.987 30.8985 21.0159 30.8371C21.0453 30.7742 21.0393 30.6554 21.1359 30.5799C21.1663 30.5566 21.3079 30.5181 21.2386 30.398C21.2336 30.3893 21.057 30.1876 21.2204 30.175C21.2473 30.173 21.4037 30.2237 21.3525 30.0881C21.3425 30.0619 21.2966 30.0928 21.2897 30.029C21.2785 29.9329 21.352 29.8227 21.3106 29.6924C21.3034 29.6683 21.2178 29.5571 21.3189 29.507C21.3347 29.4996 21.3818 29.5342 21.3977 29.4996C21.4361 29.4148 21.4584 29.3305 21.4946 29.2219C21.5134 29.168 21.5307 29.1144 21.577 29.0242C21.5873 29.0048 21.6031 28.9757 21.626 28.9409C21.653 28.9029 21.6627 28.8806 21.7428 28.8003C21.7801 28.765 21.8289 28.7246 21.8999 28.6868C21.9715 28.6456 22.1353 28.5908 22.2894 28.6101C22.6228 28.6645 22.6985 28.8087 22.7706 28.894C22.7789 28.9074 22.7863 28.9204 22.793 28.933C22.8273 28.9983 22.8058 29.0154 22.7902 29.0413C22.7726 29.0647 22.7573 29.0944 22.7655 29.1371C22.7861 29.2294 22.8189 29.3709 22.8828 29.4259C22.9464 29.48 23.051 29.3566 23.0999 29.4568C23.183 29.63 23.239 29.8052 23.2845 29.9788C23.3445 29.8295 23.4496 29.7453 23.5018 29.5962C23.5137 29.5615 23.4383 29.5645 23.449 29.5355C23.4848 29.436 23.5584 29.3473 23.5943 29.2519C23.6102 29.2089 23.5603 29.1967 23.5804 29.1596C23.6276 29.0713 23.6807 28.9971 23.7611 28.9215C23.7685 28.9146 23.8054 28.994 23.8348 28.9247C23.8821 28.8125 23.979 28.6832 23.9783 28.5334C23.9778 28.4888 23.8683 28.4513 23.9721 28.3907C23.9937 28.3779 24.1196 28.4425 24.0364 28.3061C24.0231 28.2826 23.9183 28.0692 24.042 28.0149C24.0747 28.0006 24.2005 27.974 24.1966 27.92C24.1953 27.9127 24.1283 27.923 24.1333 27.881C24.152 27.7333 24.1957 27.5844 24.2101 27.4321C24.2138 27.3914 24.1378 27.4361 24.1451 27.3763C24.1653 27.2118 24.2213 27.0132 24.2688 26.8574C24.2865 26.8001 24.3321 26.8495 24.3386 26.8462C24.4437 26.7926 24.3244 26.7305 24.3207 26.7068C24.2993 26.5581 24.3741 26.4576 24.375 26.3241C24.3753 26.2875 24.3122 26.3055 24.3074 26.2978C24.2639 26.2172 24.3655 26.2856 24.3832 26.2395C24.4329 26.1099 24.4428 25.9604 24.4455 25.8252C24.4463 25.7757 24.3718 25.8255 24.3732 25.7816C24.3807 25.5192 24.3966 25.2507 24.4325 24.999C24.4393 24.9513 24.4941 24.9803 24.5064 24.9701C24.5922 24.8986 24.4706 24.8013 24.4583 24.7798C24.4025 24.6782 24.448 24.6349 24.4326 24.5456C24.3768 24.223 24.3289 23.8488 24.2512 23.5502C24.2413 23.5089 24.2232 23.4473 24.2069 23.3951C24.1913 23.3447 24.1723 23.288 24.1529 23.2329C23.9665 22.7127 23.8029 22.2691 23.5324 21.782C23.5151 21.751 23.4678 21.8159 23.4521 21.7896C23.2511 21.4474 23.0843 21.0928 22.8645 20.7618C22.8465 20.7345 22.8113 20.8094 22.7805 20.7669C22.7165 20.6793 22.6502 20.5618 22.6125 20.4586C22.5939 20.4081 22.6812 20.4382 22.6614 20.3879C22.6151 20.2704 22.5487 20.1547 22.4713 20.0534C22.4381 20.0103 22.4226 20.1163 22.3842 20.0575C22.1205 19.6574 21.8483 19.2781 21.6367 18.8382C21.6223 18.8083 21.7196 18.7009 21.6552 18.6603C21.6203 18.6794 21.5832 18.7072 21.5479 18.7304C21.1141 18.1908 20.7172 17.6403 20.2352 17.1704C20.2149 17.1508 20.198 17.2383 20.1587 17.2009C19.9341 16.9884 19.6913 16.8118 19.4882 16.5833C19.4672 16.5605 19.5545 16.4591 19.4674 16.4264C19.4513 16.4198 19.3313 16.3666 19.286 16.3744C19.2799 16.3759 19.2694 16.4408 19.2321 16.4217C19.0207 16.3126 18.8103 16.2109 18.6231 16.1361C18.592 16.1237 18.6392 16.066 18.6163 16.0567C18.4479 15.9905 18.2807 16.0429 18.124 16.0216C18.0136 16.0102 18.0181 15.8916 17.9181 15.808C17.9034 15.796 17.8283 15.8241 17.7969 15.7678C17.7522 15.6881 17.7235 15.5961 17.6916 15.5041C17.646 15.4987 17.6236 15.4634 17.6496 15.3928C17.6348 15.3578 17.6186 15.3233 17.5992 15.2906C17.5793 15.2571 17.4535 15.363 17.4988 15.2403C17.5017 15.2313 17.597 15.1559 17.6142 15.1172C17.626 15.0898 17.5657 15.0421 17.5971 15.0009C17.6297 14.9599 17.6934 14.9956 17.7535 14.9446C17.8169 14.8937 17.7641 14.8268 17.9158 14.7846C18.271 14.6842 18.7517 14.7417 19.0488 14.8563C19.1433 14.8911 19.0832 14.9172 19.1461 14.944C19.2709 14.9984 19.384 15.0192 19.4927 15.0861C19.528 15.1084 19.4551 15.1476 19.492 15.1695C19.6892 15.2876 19.8833 15.3774 20.0573 15.5048C20.9168 16.1506 21.5484 16.9002 22.1476 17.6922C22.3445 17.9554 22.5327 18.3076 22.747 18.5674C22.7721 18.5975 22.8056 18.5459 22.8138 18.5493C22.9405 18.6044 22.8231 18.6381 22.854 18.7094C22.9766 18.9924 23.156 19.2734 23.331 19.5079C23.4052 19.607 23.4355 19.4426 23.4476 19.5813C23.4484 19.5908 23.3805 19.5964 23.3928 19.6283C23.4207 19.6997 23.5078 19.8198 23.5345 19.8727C23.586 19.9753 23.5961 19.9906 23.6511 20.0834C23.7275 20.2132 23.7889 20.377 23.8807 20.5089C23.9005 20.537 23.9322 20.467 23.9686 20.5091C24.0052 20.5514 24.0712 20.6783 24.0816 20.7269C24.0921 20.7755 24.0394 20.7816 24.0336 20.7943C23.9854 20.9015 24.1805 20.9846 24.1938 21.0016C24.4295 21.3175 24.5162 21.6462 24.6783 21.9764C24.7998 22.224 24.9486 22.4859 25.0498 22.7358C25.1165 22.9019 25.1753 23.0858 25.219 23.2571C25.2491 23.3758 25.2768 23.4998 25.3063 23.6254C25.3139 23.6587 25.3774 23.6043 25.3869 23.6455C25.4853 24.0797 25.5125 24.5123 25.4707 24.9396C25.4663 24.9826 25.4012 24.9283 25.3929 24.9712C25.3455 25.2322 25.2017 25.6238 25.4693 25.7965C25.4467 25.9705 25.4151 26.1825 25.3407 26.331C25.2926 26.4268 25.2348 26.3221 25.2494 26.4471C25.2527 26.4752 25.3181 26.4473 25.3182 26.4891C25.3179 26.6667 25.2691 26.8534 25.2702 27.0304C25.2706 27.0664 25.3267 27.0664 25.3347 27.0781C25.3989 27.1758 25.2418 27.291 25.2262 27.3186C25.1099 27.5331 25.1002 27.7038 25.0459 27.9142C25.0332 27.9629 25.1194 27.923 25.1096 27.9707C25.0577 28.2178 24.9787 28.4696 24.8711 28.6947C24.847 28.7445 24.8026 28.6774 24.788 28.7001C24.7242 28.8005 24.8285 28.8626 24.7674 28.9592C24.7546 28.9794 24.7083 28.9494 24.7013 28.9515C24.5917 28.983 24.6953 29.0816 24.6921 29.099C24.6532 29.3171 24.4733 29.3963 24.4082 29.5951C24.4005 29.6191 24.4858 29.5941 24.4598 29.6602C24.2865 30.0995 24.0268 30.5421 23.7061 30.8958C23.6567 30.95 23.6455 30.8786 23.6377 30.8783C23.6077 30.8789 23.5897 30.8865 23.5793 30.8976C23.5851 30.9119 23.5906 30.926 23.5964 30.9393C23.5987 30.9444 23.6016 30.9495 23.6039 30.9544C23.6021 30.9512 23.6002 30.9475 23.5978 30.9434C23.5924 30.9351 23.585 30.9232 23.5728 30.9067C23.5533 30.9433 23.5877 31.0042 23.5803 31.0198C23.4929 31.1927 23.2939 31.2514 23.3164 31.454C23.2858 31.4819 23.2552 31.5095 23.2245 31.5365ZM18.1595 15.7089C18.1422 15.7853 18.2522 15.7757 18.22 15.7034C18.2183 15.7003 18.1603 15.7054 18.1595 15.7089ZM17.4562 17.1756C17.5062 17.1464 17.4751 17.0291 17.4119 17.0671C17.3611 17.0967 17.3935 17.2129 17.4562 17.1756ZM17.3465 18.1606C17.2547 18.2745 17.5813 18.322 17.5269 18.188C17.5234 18.1802 17.3519 18.154 17.3465 18.1606ZM17.473 19.3706C17.5545 19.2991 17.3816 19.2299 17.3493 19.2616C17.2428 19.3671 17.3915 19.4408 17.473 19.3706ZM17.3032 24.7964C17.2183 24.7372 17.1959 24.6522 17.2793 24.5812C17.2854 24.6529 17.2961 24.7246 17.3032 24.7964ZM18.6498 29.1061C18.7313 29.1094 18.6857 28.9877 18.6256 29.0423C18.6237 29.0456 18.6464 29.106 18.6498 29.1061ZM18.8657 28.893C18.8379 28.9906 19.0564 28.9114 18.9723 28.8547C18.968 28.852 18.867 28.888 18.8657 28.893ZM22.3059 29.6623C22.3652 29.6757 22.3819 29.633 22.3748 29.5865C22.3608 29.6041 22.3278 29.6234 22.295 29.6399C22.3002 29.6529 22.3043 29.6617 22.3059 29.6623ZM20.8643 31.2865C20.8641 31.29 20.8698 31.2837 20.878 31.2703C20.8688 31.2793 20.8651 31.2848 20.8643 31.2865ZM21.3718 31.5845C21.3754 31.5857 21.403 31.5483 21.3859 31.5387C21.3303 31.5096 21.3126 31.5685 21.3718 31.5845ZM23.6039 30.9544C23.6142 30.9724 23.6146 30.976 23.6146 30.976C23.6134 30.9751 23.6092 30.9656 23.6039 30.9544Z" fill="#181818" />
    <path d="M3.4834 28.775C3.42639 28.749 3.35336 28.6701 3.33751 28.5881C3.32186 28.5065 3.3336 28.4793 3.34161 28.4443C3.36345 28.3781 3.37618 28.3686 3.38737 28.3504C3.41261 28.3159 3.42407 28.306 3.43912 28.2906C3.4663 28.2641 3.48975 28.245 3.5096 28.2289C3.55353 28.1935 3.59112 28.1658 3.63113 28.1363C3.70934 28.079 3.78488 28.0254 3.8606 27.9716C3.88936 27.9511 3.91812 27.9309 3.94669 27.9107C4.06866 27.8243 4.18966 27.7387 4.31048 27.6551C4.51742 27.5095 4.73865 27.3688 4.94465 27.2381C4.91363 27.1963 4.94519 27.1079 4.93257 27.1011C4.82407 27.0451 4.85763 27.3618 4.7165 27.3703C4.71193 27.37 4.72734 27.3103 4.71482 27.3053C4.67653 27.2893 4.6422 27.3148 4.60382 27.2969C4.51787 27.2555 4.47757 27.1033 4.35608 27.2007C4.34063 27.2134 4.37589 27.3922 4.24687 27.391C4.19505 27.3906 3.96658 27.4045 3.90102 27.3945C3.83614 27.3849 3.8783 27.3256 3.87384 27.3229C3.69928 27.2508 3.76309 27.2171 3.67659 27.1045C3.59186 26.992 3.61586 27.2619 3.58028 27.2922C3.54487 27.3226 3.41637 27.2567 3.38725 27.2331C3.35722 27.2099 3.39747 27.1745 3.37016 27.1609C3.19346 27.0703 3.28313 27.2906 3.21699 27.3295C3.05816 27.4187 2.95961 27.2038 2.83763 27.1502C2.80403 27.1352 2.82115 27.188 2.78556 27.1816C2.71631 27.1682 2.66548 27.1341 2.61486 27.0956C2.56375 27.0536 2.50721 27.0176 2.43393 26.9241C2.42423 26.9109 2.38342 26.8781 2.35913 26.8173C2.32994 26.7726 2.31115 26.712 2.36185 26.6674C2.3749 26.6567 2.42475 26.6875 2.43685 26.6332C2.4543 26.5522 2.47928 26.4072 2.4778 26.3218C2.47667 26.2569 2.38148 26.3149 2.42227 26.2387C2.44085 26.2054 2.47497 26.2802 2.50594 26.218C2.5356 26.1562 2.58031 25.9906 2.59995 25.9325C2.61906 25.8722 2.54849 25.8839 2.54611 25.8778C2.53295 25.8401 2.55166 25.71 2.5569 25.6993C2.77633 25.1691 3.16914 24.8224 3.49591 24.4027C3.52109 24.3708 3.454 24.3469 3.45693 24.3415C3.53148 24.2187 3.58717 24.4183 3.69656 24.3869C3.58826 24.3064 3.64504 24.2804 3.70446 24.1979C3.73316 24.158 3.67744 24.1409 3.6766 24.134C3.67087 24.0269 3.78063 24.0616 3.80456 24.0672C3.89423 24.0861 3.86475 23.9884 3.92389 24.0026C3.9821 24.0172 3.9829 24.1209 4.0494 24.0559C4.03501 24.0031 3.89687 23.9615 3.93492 23.8971C4.08233 23.6472 4.53827 23.3892 4.72223 23.2594C4.89827 23.1335 4.95051 23.0837 5.0639 23.0203C5.27024 22.9064 5.14719 22.8819 5.23734 22.7641C5.32906 22.6462 5.40633 22.8724 5.45178 22.9003C5.49679 22.9287 5.48512 22.875 5.52127 22.8827C5.55717 22.8905 5.5328 22.9485 5.58632 22.9233C5.63951 22.8981 5.72193 22.7351 5.71057 22.6808C5.68562 22.5661 5.55997 22.5126 5.71417 22.4573C5.7229 22.4544 5.73277 22.52 5.7644 22.5063C6.01367 22.3951 6.26255 22.2399 6.51257 22.1352C6.54737 22.1207 6.55416 22.1949 6.5748 22.1871C6.79036 22.1064 6.6623 22.0523 6.70517 21.8807C6.76706 22.0381 6.87933 22.0895 7.02805 22.0041C7.1168 21.9534 7.06483 21.8993 7.0968 21.8217C7.10653 21.7985 7.19482 21.8056 7.18929 21.7694C7.1717 21.6508 7.04863 21.5759 7.22962 21.5316C7.23764 21.5299 7.24613 21.5954 7.27164 21.5854C7.43655 21.5216 7.39905 21.4085 7.55803 21.3064C7.68304 21.2261 7.95122 21.1657 8.10732 21.0993C8.19064 21.2672 8.31137 21.1576 8.31066 21.0135C8.4108 20.9692 8.51366 20.9102 8.61685 20.8799C8.65234 20.8694 8.65484 20.9287 8.66158 20.9319C8.76538 20.9837 8.75293 20.8502 8.77204 20.8355C8.9819 20.6817 9.21134 20.6801 9.39488 20.4949C9.40114 20.4878 9.36038 20.3643 9.45937 20.4238C9.46591 20.4281 9.41686 20.5149 9.52374 20.4721C9.63085 20.4292 9.85695 20.4061 9.97908 20.2886C10.0084 20.2601 10.0573 20.1248 10.1623 20.1703C10.1763 20.1767 10.1804 20.2154 10.2024 20.2286C10.2731 20.2707 10.2466 20.1394 10.3428 20.2206C10.439 20.3018 10.5797 20.3342 10.6982 20.2037C10.7021 20.1997 10.6977 20.0893 10.7453 20.0721C10.8216 20.0447 10.9365 20.0231 11.0146 19.9922C11.0521 19.9774 11.0045 19.9263 11.0106 19.9227C11.25 19.792 11.452 19.7785 11.734 19.7045C11.7855 19.691 11.8999 19.5572 12.0192 19.5902C12.1521 19.6257 12.146 19.9626 12.366 19.8091C12.4541 19.7479 12.4539 19.3235 12.6961 19.4662C13.0334 19.3061 13.3822 19.3157 13.7162 19.1509C13.731 19.1434 13.752 19.0221 13.7893 19.0138C13.8447 19.002 13.8883 19.0451 13.9301 19.0382C14.1038 19.0109 14.2462 18.931 14.4066 18.9023C14.4672 18.8915 14.4583 18.9491 14.5336 18.9359C14.6088 18.9228 14.6438 18.8422 14.7505 18.8559C14.8311 18.8667 14.9333 18.9958 15.0323 18.9951C15.0081 18.8529 15.0813 18.8423 15.1985 18.784C15.2211 18.7728 15.1872 18.7273 15.1975 18.7194C15.2393 18.6863 15.2883 18.7206 15.327 18.6861C15.3363 18.6777 15.3292 18.629 15.3366 18.6195C15.3999 18.5363 15.5315 18.6299 15.5585 18.6458C15.6506 18.7074 15.6801 18.6394 15.7454 18.6607C15.81 18.6823 15.7229 18.7286 15.7961 18.738C15.9444 18.7576 16.1337 18.733 16.2842 18.7279C16.3432 18.7255 16.3001 18.6623 16.3082 18.6602C16.429 18.6375 16.5558 18.7056 16.6279 18.5751C16.7112 18.915 16.7064 18.5414 16.8784 18.6175C16.8918 18.6238 16.8981 18.7844 16.8475 18.8052C16.7972 18.8261 16.7213 18.7733 16.6473 18.8094C16.6294 18.8179 16.5308 18.968 16.5176 18.9777C16.4164 19.0505 16.3973 18.8137 16.3903 18.7997C16.3227 18.6599 16.2077 18.8283 16.1769 18.8419C16.0276 18.9034 15.912 18.8811 15.7929 18.9313C15.716 18.9641 15.7276 19.1207 15.6647 19.1239C15.4581 19.1355 15.3577 18.9301 15.1923 19.1503C15.1576 19.1975 15.2275 19.3586 15.0565 19.2527C15.0462 19.2457 14.9156 19.1451 14.8677 19.2341C14.8617 19.2453 14.8718 19.2943 14.8622 19.3005C14.7981 19.341 14.7432 19.3115 14.6699 19.3465C14.5955 19.3818 14.5119 19.4294 14.4231 19.4324C14.3695 19.4343 14.281 19.3594 14.2504 19.3433C14.1639 19.2964 14.1128 19.4198 14.0488 19.3539C13.9838 19.2878 14.0432 19.1476 13.9104 19.1279C13.9383 19.2547 13.9615 19.3864 13.9876 19.5145C13.7415 19.5725 13.4705 19.6035 13.2259 19.6816C13.1951 19.6915 13.2469 19.7492 13.2145 19.7616C13.0777 19.8137 12.9387 19.804 12.7972 19.8694C12.6907 19.9194 12.5914 20.0293 12.4802 20.0858C12.3618 19.9684 12.1994 20.0764 12.0717 20.1066C12.0263 20.1175 12.0159 20.0792 11.9803 20.078C11.846 20.0746 11.9455 20.1785 11.9204 20.2095C11.8119 20.3418 11.6979 20.0669 11.5345 20.1347C11.5251 20.1386 11.4759 20.3257 11.4651 20.3404C11.3962 20.4349 11.4303 20.2946 11.3686 20.3052C11.2557 20.3251 11.1682 20.3179 11.0612 20.4094C11.0301 20.4363 10.98 20.5621 10.8819 20.5191C10.8691 20.5134 10.8544 20.4628 10.8459 20.4628C10.6934 20.4688 10.752 20.6228 10.6977 20.705C10.6435 20.7872 10.4828 20.731 10.4459 20.7109C10.3503 20.659 10.4797 20.6575 10.4798 20.6485C10.4813 20.5409 10.402 20.5919 10.333 20.6118C10.2604 20.4674 10.1719 20.5153 10.2618 20.6331C10.2718 20.6459 10.3169 20.6106 10.333 20.6118C10.3372 20.7818 10.246 20.8423 10.0765 20.7543C9.99698 20.7131 10.0133 20.6178 9.86764 20.7136C9.80174 20.7571 9.87446 20.8464 9.82427 20.9017C9.70958 21.0279 9.48116 21.0175 9.34146 21.1003C9.2909 21.1304 9.36855 21.1615 9.33495 21.1839C9.24605 21.2435 9.14186 21.2422 9.05608 21.3091C9.04836 21.3152 9.09719 21.3624 9.06779 21.3774C8.84529 21.4923 8.63112 21.5526 8.39858 21.6701C8.28538 21.7272 8.10138 21.863 7.98346 21.9183C7.78027 22.0131 7.48762 22.0692 7.33176 22.1845C7.2299 22.2594 7.28622 22.301 7.26192 22.3651C7.21559 22.4889 6.97853 22.4543 6.94518 22.4472C6.94601 22.4454 7.02903 22.3785 6.96303 22.3802C6.89917 22.3395 6.94527 22.4446 6.94518 22.4472C6.92294 22.4426 6.73051 22.5424 6.70102 22.5753C6.68496 22.5931 6.72792 22.6374 6.71892 22.6457C6.50164 22.8434 6.27077 23.0107 6.01401 23.1516C6.00905 23.1535 5.97699 23.0937 5.96578 23.0989C5.80803 23.1704 5.76779 23.3001 5.68636 23.4191C5.60558 23.5377 5.50544 23.5917 5.37012 23.5485C5.29544 23.6229 5.14725 23.6731 5.06172 23.7015C4.97324 23.7322 5.04733 23.8418 5.04304 23.8485C4.91095 24.0634 4.7692 24.0845 4.57634 24.2418C4.48455 24.3163 4.33987 24.4797 4.26165 24.5794C4.20087 24.657 4.13818 24.6777 4.09275 24.755C4.08666 24.7654 4.13747 24.7962 4.13711 24.8005C4.12373 24.9182 4.04896 24.7881 4.01637 24.7857C3.89911 24.7763 3.82878 24.7793 3.77832 24.906C3.76618 24.9357 3.87275 25.131 3.85172 25.177C3.82343 25.2373 3.77972 25.1728 3.75263 25.2373C3.7502 25.243 3.78799 25.2687 3.76083 25.3015C3.6321 25.4586 3.4992 25.6126 3.41084 25.7892C3.39917 25.8124 3.4789 25.8168 3.46364 25.8501C3.39402 26.0024 3.32334 26.1716 3.2538 26.3083C3.23624 26.3427 3.19264 26.308 3.17592 26.3124C3.08377 26.3408 3.16962 26.4235 3.18844 26.4463C3.23314 26.4237 3.28829 26.4121 3.31878 26.483C3.32093 26.4913 3.37742 26.6189 3.43661 26.5358C3.44021 26.5306 3.40332 26.4657 3.47106 26.474C3.54044 26.4823 3.6524 26.4399 3.75464 26.5078C3.7863 26.5293 3.86693 26.6511 3.96064 26.5485C3.96738 26.5411 4.10607 26.3121 4.16868 26.4624C4.17889 26.4872 4.1787 26.6505 4.29275 26.5603C4.31476 26.5427 4.27099 26.509 4.32999 26.4828C4.41859 26.4425 4.54695 26.4778 4.65899 26.3984C4.67986 26.3842 4.75996 26.269 4.8392 26.349C4.85115 26.3616 4.83262 26.4168 4.87068 26.4211C4.96373 26.4311 5.05145 26.4262 5.16662 26.4268C5.2241 26.4278 5.28085 26.4276 5.38156 26.4434C5.40334 26.4472 5.43615 26.4531 5.47657 26.464C5.5213 26.4777 5.5456 26.4799 5.64732 26.5308C5.69269 26.5551 5.74643 26.5887 5.80468 26.644C5.86625 26.6988 5.96938 26.8365 5.99847 26.988C6.04938 27.3195 5.93457 27.4356 5.87512 27.53C5.86488 27.5419 5.85465 27.5529 5.84468 27.5632C5.79278 27.6157 5.76969 27.6007 5.74005 27.5939C5.71221 27.5846 5.67905 27.5793 5.64063 27.6003C5.55854 27.6482 5.43311 27.723 5.40019 27.8002C5.36795 27.877 5.51855 27.9376 5.43768 28.0147C5.2974 28.1466 5.14683 28.2537 4.99451 28.3503C5.15612 28.3608 5.26924 28.434 5.42831 28.4372C5.46516 28.4377 5.43898 28.3675 5.47009 28.3686C5.5765 28.3717 5.68421 28.4137 5.78675 28.4181C5.83288 28.4198 5.82913 28.369 5.8709 28.3765C5.97007 28.3938 6.05766 28.4209 6.15492 28.4735C6.16381 28.4783 6.09913 28.5377 6.1746 28.544C6.2967 28.554 6.45053 28.6055 6.59386 28.5585C6.63645 28.5443 6.63854 28.4294 6.72872 28.5086C6.74768 28.525 6.72468 28.6638 6.82964 28.5432C6.84808 28.5234 7.0201 28.3585 7.11034 28.4585C7.13418 28.4849 7.19852 28.5955 7.24908 28.575C7.25568 28.5716 7.22512 28.5115 7.26686 28.5033C7.41415 28.4753 7.57041 28.4705 7.7208 28.4371C7.76086 28.428 7.69458 28.37 7.75418 28.3584C7.91802 28.3267 8.12565 28.3182 8.28961 28.3149C8.34993 28.3138 8.31674 28.3721 8.32185 28.3773C8.40571 28.46 8.4283 28.3282 8.44995 28.3173C8.58582 28.2512 8.70513 28.2907 8.83337 28.2503C8.86855 28.2393 8.83174 28.1853 8.83766 28.1784C8.90145 28.1124 8.86734 28.2295 8.917 28.2319C9.05647 28.2388 9.20279 28.2019 9.33323 28.1627C9.38088 28.1482 9.31009 28.0932 9.35267 28.081C9.60641 28.0069 9.86855 27.939 10.1209 27.8951C10.1687 27.8868 10.1578 27.9475 10.1714 27.9559C10.2664 28.0149 10.322 27.8701 10.3389 27.8518C10.4189 27.7677 10.4745 27.7972 10.5553 27.7551C10.8472 27.6027 11.1909 27.4419 11.453 27.2763C11.4896 27.2542 11.543 27.2181 11.5879 27.1865C11.6314 27.1562 11.6799 27.1208 11.7267 27.0854C12.1676 26.7487 12.542 26.4572 12.9252 26.0514C12.9496 26.0255 12.8728 26.0009 12.8931 25.9779C13.1588 25.6824 13.4471 25.4154 13.6964 25.1056C13.7169 25.0802 13.6343 25.0701 13.6655 25.0279C13.7297 24.9403 13.8217 24.8415 13.909 24.774C13.9516 24.7409 13.9498 24.8326 13.9918 24.7984C14.0901 24.7184 14.1804 24.6199 14.2536 24.5155C14.2847 24.4709 14.1782 24.489 14.2227 24.4346C14.5246 24.062 14.8039 23.6879 15.16 23.3522C15.1843 23.3293 15.3173 23.3879 15.3363 23.3146C15.3071 23.2876 15.269 23.2612 15.2359 23.235C15.6189 22.6588 16.0238 22.114 16.325 21.5138C16.3376 21.4886 16.2485 21.4997 16.2722 21.451C16.4065 21.1733 16.5006 20.8895 16.6568 20.6272C16.6721 20.6004 16.7963 20.6514 16.8007 20.5591C16.8021 20.5419 16.816 20.4121 16.7944 20.3718C16.7911 20.3665 16.7257 20.3766 16.7325 20.3355C16.7717 20.1022 16.8041 19.8722 16.8179 19.6724C16.8202 19.6392 16.8901 19.666 16.8919 19.6414C16.9033 19.462 16.8014 19.3204 16.7734 19.1658C16.7503 19.0581 16.8653 19.0257 16.9145 18.9054C16.9215 18.8879 16.8713 18.8257 16.9156 18.7786C16.9781 18.7118 17.0574 18.6563 17.1357 18.5978C17.1268 18.5531 17.1536 18.521 17.2293 18.5237C17.2583 18.4989 17.2863 18.473 17.3117 18.4445C17.3376 18.4154 17.1973 18.3294 17.3289 18.3342C17.3384 18.3342 17.4401 18.4009 17.4825 18.4051C17.5123 18.4078 17.5395 18.3362 17.5886 18.3531C17.638 18.3711 17.6234 18.4423 17.6909 18.4833C17.7593 18.5274 17.8071 18.4569 17.8943 18.5871C18.1003 18.8913 18.1938 19.3629 18.1758 19.6788C18.1716 19.7787 18.128 19.73 18.1218 19.7977C18.1082 19.9323 18.1233 20.0456 18.0928 20.1688C18.0823 20.209 18.0222 20.1523 18.0127 20.1939C17.9604 20.4166 17.9344 20.6276 17.8661 20.8311C17.5129 21.8421 16.9897 22.6699 16.4161 23.4803C16.2247 23.7475 15.9454 24.034 15.7627 24.3166C15.7415 24.3496 15.8014 24.3652 15.8006 24.374C15.787 24.5107 15.7185 24.4103 15.6597 24.4614C15.4264 24.6646 15.2125 24.9208 15.0419 25.1585C14.9699 25.2591 15.1368 25.2369 15.0077 25.2913C14.9988 25.295 14.9725 25.2326 14.9457 25.2541C14.8859 25.3024 14.7977 25.4218 14.7553 25.4633C14.6729 25.5437 14.6613 25.5579 14.5895 25.6385C14.4887 25.7507 14.3506 25.8593 14.2527 25.9867C14.2319 26.0141 14.3087 26.0224 14.2797 26.0698C14.2505 26.1174 14.1492 26.2189 14.1059 26.2437C14.0625 26.2686 14.0404 26.2208 14.0264 26.2192C13.9088 26.2069 13.8895 26.4167 13.8773 26.4345C13.6474 26.7546 13.3593 26.9381 13.093 27.1931C12.8933 27.3843 12.6883 27.6057 12.4801 27.7785C12.3417 27.8928 12.1836 28.0051 12.033 28.0992C11.9285 28.1644 11.8182 28.2288 11.707 28.2955C11.6775 28.313 11.7492 28.3561 11.7127 28.3778C11.327 28.6049 10.921 28.7642 10.4986 28.8568C10.456 28.8659 10.4879 28.7877 10.4443 28.7932C10.1795 28.8291 9.75985 28.8143 9.67711 29.1203C9.50342 29.1527 9.2905 29.1884 9.12513 29.164C9.01851 29.1483 9.10096 29.0613 8.9857 29.1138C8.95986 29.1256 9.00678 29.1787 8.96673 29.1916C8.79644 29.2463 8.60246 29.2579 8.43322 29.3137C8.39888 29.3252 8.41617 29.3781 8.4075 29.3892C8.33371 29.48 8.17474 29.3674 8.14345 29.3611C7.90198 29.3176 7.73545 29.3612 7.51712 29.375C7.46647 29.378 7.53139 29.4471 7.48262 29.4526C7.22984 29.48 6.96418 29.4832 6.71523 29.4512C6.66004 29.4438 6.71064 29.3811 6.68436 29.3744C6.56843 29.3452 6.54116 29.4629 6.42972 29.4351C6.40638 29.4292 6.42079 29.3762 6.41665 29.3702C6.35266 29.2766 6.29018 29.4048 6.27252 29.4072C6.05148 29.4378 5.92007 29.2925 5.70938 29.2924C5.68408 29.2926 5.73437 29.3654 5.66301 29.3612C5.18854 29.3334 4.68417 29.2251 4.24611 29.0316C4.17891 29.0018 4.24394 28.9691 4.24173 28.9616C4.23193 28.9335 4.21908 28.9189 4.20521 28.9125C4.19329 28.9224 4.18149 28.9319 4.17058 28.9415C4.16634 28.9453 4.16243 28.9496 4.15845 28.9533C4.1609 28.9506 4.16391 28.9476 4.16705 28.9441C4.17338 28.9364 4.18247 28.9258 4.19449 28.9092C4.15341 28.9021 4.10567 28.9534 4.0884 28.9512C3.89574 28.9221 3.77798 28.7524 3.59088 28.8362C3.55466 28.8159 3.51879 28.7956 3.4834 28.775ZM17.084 19.1027C17.0055 19.11 17.0487 19.2109 17.108 19.1582C17.1104 19.1555 17.0876 19.1024 17.084 19.1027ZM15.4613 18.892C15.5048 18.9302 15.6075 18.8647 15.5516 18.8167C15.5075 18.7779 15.4063 18.8444 15.4613 18.892ZM14.4836 19.0929C14.3461 19.0414 14.4015 19.3644 14.5131 19.2716C14.5195 19.2659 14.4916 19.0959 14.4836 19.0929ZM13.3633 19.5862C13.457 19.6411 13.4699 19.4565 13.4295 19.4358C13.2955 19.3678 13.2708 19.531 13.3633 19.5862ZM8.11192 21.1026C8.14239 21.0041 8.21688 20.9568 8.31066 21.0135C8.24394 21.0415 8.17846 21.0737 8.11192 21.1026ZM4.39849 23.7056C4.42053 23.7835 4.52305 23.7028 4.45217 23.663C4.44839 23.6622 4.3976 23.7023 4.39849 23.7056ZM4.66946 23.8434C4.56731 23.8475 4.71074 24.0292 4.73909 23.9323C4.74029 23.9274 4.67462 23.8431 4.66946 23.8434ZM4.9954 27.3287C5.00084 27.3888 5.04695 27.3913 5.08929 27.3704C5.06811 27.3625 5.0394 27.3373 5.01343 27.3115C5.00263 27.3205 4.99543 27.327 4.9954 27.3287ZM2.99364 26.4697C2.99022 26.4706 2.99801 26.474 3.01339 26.4777C3.00191 26.4717 2.99546 26.47 2.99364 26.4697ZM2.86489 27.0409C2.86487 27.0447 2.90919 27.0592 2.91313 27.04C2.92385 26.9786 2.86192 26.9801 2.86489 27.0409ZM4.15845 28.9533C4.14437 28.9686 4.14102 28.97 4.14102 28.97C4.14152 28.9686 4.14931 28.9617 4.15845 28.9533Z" fill="#181818" />
    <path d="M0.0290705 9.28645C0.0364009 9.22458 0.089467 9.13126 0.163123 9.09096C0.236473 9.05097 0.266195 9.05364 0.302142 9.0504C0.372304 9.05056 0.385357 9.05964 0.406283 9.06458C0.447167 9.07773 0.46015 9.0855 0.479571 9.09495C0.51339 9.1124 0.538893 9.12865 0.560435 9.14242C0.607964 9.17294 0.646116 9.19986 0.686736 9.22852C0.765804 9.28465 0.840511 9.33939 0.915517 9.39423C0.94397 9.41507 0.972231 9.43597 1.00046 9.45669C1.12094 9.54511 1.2403 9.6329 1.3578 9.7211C1.56123 9.87146 1.76443 10.0368 1.95328 10.1909C1.9838 10.1487 2.0782 10.1512 2.08086 10.1371C2.10097 10.0174 1.80784 10.147 1.75613 10.0164C1.75497 10.012 1.81691 10.0081 1.81792 9.9947C1.82141 9.95361 1.78638 9.92908 1.79158 9.88735C1.80472 9.79341 1.93811 9.70833 1.80722 9.62375C1.79034 9.61307 1.62986 9.70162 1.59119 9.57944C1.57549 9.53043 1.4916 9.31904 1.48095 9.25406C1.47008 9.18985 1.53991 9.21133 1.54109 9.20629C1.55631 9.01921 1.60833 9.06902 1.68941 8.9526C1.7711 8.83783 1.51991 8.94388 1.47983 8.91968C1.43979 8.89564 1.46321 8.75397 1.4768 8.71921C1.48978 8.68367 1.53612 8.71074 1.54067 8.68077C1.5729 8.48596 1.38953 8.63869 1.33184 8.58826C1.1973 8.46589 1.37277 8.30645 1.38637 8.17476C1.39042 8.13839 1.34512 8.17087 1.3402 8.13531C1.33169 8.06578 1.34862 8.00728 1.36992 7.94758C1.39439 7.88634 1.41133 7.82187 1.47831 7.7238C1.48797 7.71056 1.50676 7.6619 1.55754 7.62018C1.59133 7.57882 1.64363 7.54234 1.70199 7.57643C1.71633 7.58543 1.70222 7.642 1.75792 7.63666C1.84095 7.6281 1.98758 7.60688 2.06898 7.57909C2.13079 7.55797 2.04584 7.48603 2.13147 7.50098C2.16909 7.50825 2.10799 7.56356 2.17717 7.57357C2.24548 7.58249 2.41803 7.5735 2.47978 7.57409C2.54339 7.57351 2.51037 7.51052 2.51552 7.50637C2.5476 7.48229 2.67806 7.45974 2.68993 7.46138C3.26569 7.50471 3.71936 7.76834 4.22248 7.94711C4.26082 7.96103 4.26296 7.89032 4.26906 7.89141C4.40976 7.92384 4.23569 8.0381 4.29959 8.13166C4.34329 8.00454 4.38574 8.05011 4.48314 8.0807C4.53019 8.09548 4.52941 8.03758 4.53573 8.03467C4.63664 7.99615 4.63724 8.1105 4.63927 8.13482C4.64885 8.22531 4.73338 8.16729 4.73807 8.2275C4.74204 8.28697 4.64292 8.31977 4.72583 8.36243C4.77189 8.33256 4.76911 8.18929 4.84253 8.20532C5.12762 8.26722 5.51568 8.61791 5.69685 8.75146C5.87192 8.87873 5.93577 8.91265 6.03162 9.00008C6.20445 9.15969 6.18989 9.03596 6.33067 9.08464C6.47197 9.1348 6.27916 9.27762 6.26639 9.32918C6.25316 9.38042 6.30092 9.35283 6.30479 9.38931C6.30842 9.42561 6.2453 9.42054 6.28596 9.46327C6.32652 9.5057 6.5082 9.53312 6.55672 9.50562C6.65894 9.44662 6.67133 9.31149 6.77203 9.43995C6.77745 9.44731 6.71762 9.47691 6.74057 9.50251C6.92418 9.70344 7.14974 9.89044 7.32733 10.0941C7.35195 10.1225 7.28301 10.1518 7.29686 10.1689C7.44075 10.3474 7.45304 10.2098 7.63067 10.1973C7.49905 10.3043 7.48447 10.4262 7.61222 10.5402C7.6882 10.6083 7.72404 10.5425 7.80822 10.5487C7.83354 10.5507 7.85399 10.6363 7.88692 10.6199C7.99515 10.5666 8.02889 10.4273 8.12725 10.5845C8.13142 10.5915 8.07121 10.6198 8.08867 10.6408C8.20081 10.7767 8.2976 10.7064 8.44455 10.8249C8.5601 10.9181 8.70082 11.1526 8.81271 11.2794C8.6776 11.4099 8.8199 11.49 8.95775 11.4448C9.03115 11.5257 9.11944 11.6046 9.18043 11.6926C9.20145 11.7228 9.14541 11.7435 9.14438 11.7509C9.12686 11.8649 9.25095 11.8119 9.27089 11.8254C9.48309 11.9759 9.55559 12.192 9.7897 12.3081C9.79842 12.3118 9.9042 12.2351 9.87776 12.347C9.8757 12.3545 9.77735 12.335 9.85139 12.4227C9.92558 12.5105 10.0176 12.7168 10.168 12.7958C10.2043 12.8147 10.3491 12.819 10.3379 12.9322C10.3361 12.9474 10.3003 12.9632 10.2944 12.9881C10.276 13.0678 10.3935 13.0023 10.3455 13.1181C10.2974 13.234 10.3099 13.3768 10.4715 13.4484C10.4765 13.4508 10.5809 13.4126 10.6122 13.4521C10.662 13.5157 10.7182 13.6175 10.7719 13.6818C10.7977 13.7125 10.8319 13.6518 10.8373 13.6565C11.0366 13.8421 11.1119 14.0285 11.2699 14.2719C11.2987 14.3163 11.4623 14.383 11.4676 14.5058C11.4746 14.6422 11.1499 14.7406 11.365 14.9008C11.4508 14.9651 11.8574 14.8338 11.7955 15.1064C12.0532 15.3754 12.1518 15.7077 12.4129 15.972C12.4246 15.9837 12.5474 15.9659 12.5669 15.9987C12.5952 16.0473 12.5674 16.1018 12.587 16.1391C12.6668 16.2946 12.7874 16.4044 12.8644 16.5469C12.8935 16.6007 12.8356 16.6102 12.8715 16.6772C12.9073 16.7441 12.9953 16.7522 13.0151 16.8572C13.0298 16.9366 12.9376 17.073 12.9689 17.1662C13.0976 17.0994 13.1305 17.1652 13.2225 17.2579C13.2402 17.2757 13.2733 17.2297 13.284 17.2369C13.3287 17.2662 13.311 17.3231 13.356 17.3489C13.3669 17.3551 13.4114 17.3334 13.4228 17.3374C13.5221 17.3715 13.4731 17.5246 13.4661 17.555C13.4356 17.6609 13.5099 17.6678 13.5097 17.736C13.5089 17.8037 13.4376 17.7358 13.4513 17.8077C13.4783 17.9538 13.5603 18.1249 13.6118 18.2654C13.6323 18.3204 13.6796 18.2601 13.6841 18.2672C13.7431 18.3742 13.7171 18.5149 13.8644 18.5426C13.5645 18.7263 13.921 18.6063 13.9012 18.7922C13.8992 18.8068 13.7473 18.8624 13.7117 18.8211C13.6762 18.78 13.7033 18.6921 13.6458 18.6334C13.6322 18.6191 13.4579 18.5724 13.4446 18.5629C13.3435 18.4899 13.5645 18.3987 13.5758 18.3877C13.6889 18.2808 13.4919 18.2243 13.4694 18.1993C13.3643 18.0774 13.3499 17.9614 13.265 17.8645C13.2098 17.8021 13.0634 17.8614 13.0409 17.803C12.966 17.6116 13.1317 17.4533 12.8696 17.3652C12.8137 17.3471 12.6809 17.4628 12.7295 17.2687C12.7331 17.2568 12.7891 17.1024 12.689 17.0847C12.6764 17.0825 12.6326 17.1071 12.6237 17.1C12.5651 17.052 12.5763 16.9911 12.5202 16.9327C12.4634 16.8734 12.3919 16.8092 12.3616 16.7263C12.3433 16.6762 12.3877 16.5696 12.3937 16.5357C12.4118 16.4395 12.2778 16.4295 12.3211 16.3487C12.3644 16.2669 12.5171 16.2797 12.495 16.1482C12.3821 16.2138 12.263 16.2763 12.1484 16.3405C12.0168 16.1261 11.9033 15.8799 11.7529 15.6731C11.7338 15.6472 11.6946 15.7138 11.6727 15.6871C11.5805 15.5741 11.5468 15.4399 11.4404 15.3265C11.3596 15.2414 11.2236 15.1816 11.1351 15.0941C11.211 14.9461 11.0574 14.8261 10.989 14.715C10.9645 14.6755 10.998 14.6538 10.9882 14.6198C10.9499 14.492 10.8811 14.618 10.8437 14.6039C10.6833 14.5424 10.9115 14.3498 10.7961 14.2165C10.7894 14.2089 10.5949 14.2203 10.5775 14.2146C10.4657 14.1788 10.6106 14.1676 10.5814 14.1126C10.5275 14.0121 10.5073 13.9274 10.3866 13.8547C10.3512 13.8336 10.2152 13.8252 10.2261 13.7193C10.2275 13.7054 10.2715 13.6759 10.2689 13.6679C10.216 13.5257 10.0866 13.6287 9.99098 13.6029C9.89546 13.577 9.89966 13.408 9.90753 13.3669C9.92774 13.2607 9.96913 13.3823 9.97781 13.3797C10.0814 13.3478 10.008 13.2887 9.96759 13.2298C10.0835 13.1166 10.0103 13.0478 9.92517 13.1692C9.91598 13.1825 9.96378 13.2142 9.96759 13.2298C9.80605 13.2863 9.71985 13.2189 9.75183 13.0316C9.76668 12.9439 9.86307 12.9298 9.72628 12.8219C9.66419 12.7732 9.60114 12.8694 9.53263 12.8391C9.37624 12.7699 9.31567 12.551 9.19309 12.4447C9.1487 12.4063 9.14284 12.4892 9.111 12.4644C9.02645 12.3989 8.99545 12.3002 8.90488 12.2398C8.89662 12.2345 8.86648 12.2951 8.84305 12.272C8.66419 12.0975 8.54025 11.9139 8.35579 11.7307C8.26612 11.6415 8.07914 11.5098 7.98972 11.4156C7.83604 11.2531 7.69184 10.9941 7.53326 10.8826C7.42997 10.8096 7.40758 10.8756 7.33856 10.8725C7.20565 10.867 7.16561 10.6325 7.16208 10.5989C7.16408 10.5991 7.2538 10.6568 7.23181 10.595C7.25104 10.5222 7.16458 10.5982 7.16208 10.5989C7.15958 10.5765 7.00447 10.4257 6.9639 10.408C6.94185 10.3983 6.91267 10.4526 6.90195 10.4466C6.64535 10.3026 6.41372 10.1364 6.19937 9.93756C6.196 9.93346 6.24342 9.88472 6.23497 9.87574C6.11766 9.74894 5.98101 9.75101 5.84184 9.71091C5.70319 9.67132 5.62047 9.59349 5.62009 9.45238C5.52569 9.40489 5.43181 9.28051 5.37816 9.20854C5.32143 9.1345 5.23933 9.2383 5.23154 9.23634C4.98484 9.17805 4.9208 9.05077 4.71044 8.91733C4.61076 8.85368 4.40951 8.76759 4.28972 8.72459C4.19659 8.69119 4.1574 8.6384 4.06927 8.61942C4.05745 8.61687 4.04367 8.67434 4.03938 8.67535C3.92252 8.69907 4.02404 8.58831 4.01632 8.55678C3.98911 8.44318 3.96449 8.37772 3.82741 8.36926C3.79523 8.36697 3.64106 8.52791 3.59051 8.52227C3.52398 8.5142 3.57225 8.45302 3.50205 8.44738C3.49585 8.44685 3.48294 8.49044 3.44313 8.47494C3.2528 8.40197 3.0642 8.3241 2.86763 8.29528C2.84181 8.29142 2.86226 8.36804 2.82559 8.36394C2.65815 8.34528 2.4742 8.33084 2.32175 8.30744C2.2833 8.3015 2.30312 8.24961 2.2937 8.23519C2.23801 8.15698 2.18532 8.26358 2.16931 8.28839C2.20473 8.32361 2.23296 8.37207 2.17442 8.42277C2.16714 8.42735 2.06231 8.52012 2.16021 8.55032C2.16634 8.5521 2.21712 8.49722 2.23006 8.56374C2.24352 8.63181 2.31874 8.7244 2.28532 8.84188C2.27449 8.87841 2.18275 8.99215 2.30995 9.04892C2.31914 9.053 2.58143 9.11315 2.45676 9.2187C2.43619 9.23598 2.27963 9.28627 2.40134 9.36605C2.42493 9.38141 2.44372 9.32967 2.48709 9.37726C2.55308 9.44845 2.55892 9.58053 2.6696 9.66177C2.6897 9.67706 2.82477 9.71709 2.77259 9.81662C2.76424 9.83178 2.70563 9.83134 2.71326 9.86861C2.73244 9.95953 2.76426 10.0408 2.79927 10.1497C2.81603 10.2043 2.83377 10.2578 2.84973 10.3578C2.85289 10.3795 2.85734 10.4123 2.85941 10.4538C2.86012 10.5003 2.86546 10.5239 2.84819 10.6356C2.8389 10.686 2.82334 10.7471 2.7883 10.8192C2.7548 10.8942 2.65472 11.0341 2.51858 11.1084C2.21668 11.2589 2.06998 11.1864 1.96117 11.1594C1.94654 11.1535 1.93285 11.1472 1.91991 11.141C1.85359 11.1082 1.86081 11.0818 1.85812 11.0517C1.8585 11.0225 1.85333 10.9896 1.82134 10.9598C1.75006 10.8971 1.63965 10.8018 1.55546 10.7946C1.47191 10.7879 1.46035 10.9488 1.3615 10.8963C1.19175 10.8046 1.04266 10.6956 0.903048 10.5816C0.942908 10.7374 0.907729 10.8668 0.953809 11.018C0.96473 11.0529 1.0239 11.0065 1.03247 11.0362C1.06239 11.1376 1.05542 11.2523 1.08289 11.3505C1.09545 11.3945 1.14303 11.3753 1.14872 11.4171C1.16282 11.516 1.16385 11.6071 1.14355 11.7151C1.14172 11.725 1.06479 11.6823 1.08203 11.7555C1.11023 11.8738 1.10839 12.035 1.19771 12.1558C1.22448 12.1916 1.33525 12.158 1.28723 12.2676C1.27733 12.2906 1.13722 12.3118 1.28528 12.3736C1.30997 12.3849 1.52111 12.4963 1.45321 12.6124C1.43522 12.6431 1.34916 12.738 1.38437 12.7794C1.38967 12.7845 1.43782 12.7371 1.45858 12.774C1.53093 12.9044 1.58383 13.0504 1.66232 13.182C1.6834 13.217 1.7185 13.1366 1.74798 13.1892C1.82906 13.3341 1.90133 13.5275 1.95519 13.6812C1.97483 13.7378 1.90869 13.7245 1.90538 13.7309C1.85201 13.8357 1.98531 13.8162 2.00239 13.8333C2.10773 13.9412 2.10676 14.066 2.18509 14.1746C2.20651 14.2044 2.24689 14.1529 2.25531 14.1564C2.33829 14.1962 2.21556 14.2002 2.22857 14.2478C2.26507 14.3816 2.3456 14.5083 2.42351 14.6193C2.45211 14.6598 2.48292 14.576 2.5078 14.6125C2.65717 14.8291 2.80324 15.0556 2.92333 15.2802C2.94605 15.3227 2.88454 15.3313 2.88062 15.3466C2.85352 15.4545 3.00947 15.4623 3.0322 15.4726C3.13752 15.5221 3.12636 15.5837 3.19165 15.647C3.42788 15.8754 3.68824 16.1502 3.92793 16.3465C3.96036 16.3741 4.01151 16.4134 4.05559 16.4461C4.09807 16.4778 4.147 16.5126 4.19538 16.5458C4.6542 16.858 5.04922 17.1213 5.55653 17.3577C5.58888 17.3727 5.58871 17.2926 5.61699 17.3047C5.98228 17.4642 6.32719 17.6538 6.70109 17.7934C6.73175 17.8049 6.7159 17.7238 6.766 17.7402C6.86969 17.7737 6.99287 17.8301 7.08447 17.8916C7.12937 17.9216 7.04096 17.9482 7.08675 17.9774C7.19378 18.0454 7.31607 18.1002 7.43866 18.137C7.49103 18.1526 7.44076 18.0577 7.50668 18.0829C7.957 18.2527 8.40174 18.4008 8.83347 18.6332C8.86291 18.6491 8.84778 18.7927 8.92392 18.788C8.94082 18.7521 8.95436 18.708 8.96917 18.6686C9.63966 18.8521 10.2868 19.0659 10.955 19.1648C10.983 19.1689 10.9449 19.0882 10.9988 19.0956C11.3064 19.1365 11.6074 19.1377 11.907 19.204C11.9375 19.2102 11.9269 19.3432 12.0167 19.3188C12.0337 19.3148 12.1623 19.2878 12.1943 19.2551C12.1983 19.2503 12.1684 19.1917 12.2099 19.1854C12.4456 19.1503 12.6759 19.1098 12.8717 19.0611C12.9042 19.053 12.9001 19.1272 12.9242 19.1214C13.0996 19.0767 13.2039 18.9368 13.3433 18.8625C13.4394 18.8074 13.5059 18.906 13.6364 18.9152C13.6553 18.9164 13.6995 18.8498 13.7583 18.8771C13.8416 18.9154 13.9193 18.9732 13.9996 19.029C14.0396 19.0068 14.0787 19.0222 14.0995 19.0945C14.1322 19.1142 14.1657 19.1326 14.2008 19.1478C14.2367 19.1633 14.2758 19.0042 14.3118 19.1299C14.3148 19.1389 14.2823 19.2555 14.2913 19.2968C14.298 19.3258 14.375 19.3293 14.374 19.3809C14.372 19.4331 14.2992 19.4414 14.2809 19.5177C14.2597 19.5959 14.342 19.6193 14.2442 19.7418C14.0164 20.0303 13.5934 20.2642 13.2852 20.3448C13.1882 20.3718 13.2213 20.3156 13.1545 20.3306C13.0214 20.3594 12.9175 20.4087 12.79 20.4179C12.7483 20.4205 12.784 20.3462 12.7412 20.3501C12.5117 20.3695 12.3015 20.4102 12.0853 20.4086C11.0075 20.3876 10.0526 20.1496 9.09881 19.8585C8.78368 19.7604 8.4228 19.5853 8.09561 19.5001C8.05746 19.4903 8.06094 19.5517 8.05232 19.5537C7.91713 19.583 7.99217 19.4873 7.92497 19.4476C7.65823 19.2902 7.34662 19.1675 7.06613 19.0799C6.94747 19.043 7.02033 19.1937 6.92836 19.0886C6.92208 19.0814 6.9737 19.0372 6.94488 19.0186C6.88005 18.9771 6.73845 18.9307 6.68557 18.9035C6.58309 18.8506 6.56586 18.844 6.4664 18.8011C6.32775 18.7406 6.18105 18.6439 6.02867 18.5908C5.99602 18.5796 6.01183 18.6547 5.95745 18.6419C5.90282 18.6291 5.77426 18.5649 5.73707 18.5316C5.6998 18.4984 5.73883 18.4627 5.73596 18.4491C5.71144 18.3343 5.50445 18.3809 5.48363 18.3748C5.10585 18.2567 4.841 18.0415 4.51436 17.8689C4.26948 17.7395 3.99401 17.6144 3.76412 17.4712C3.61177 17.3758 3.45532 17.2613 3.31857 17.1482C3.22383 17.0698 3.12803 16.9856 3.0298 16.9012C3.0039 16.8787 2.98472 16.9597 2.95265 16.932C2.61594 16.6381 2.33781 16.304 2.11853 15.9339C2.09666 15.8966 2.18143 15.9025 2.16271 15.863C2.04649 15.6241 1.93097 15.2234 1.61221 15.2399C1.52748 15.0859 1.4275 14.896 1.39972 14.7323C1.38186 14.6268 1.49065 14.6778 1.40478 14.5852C1.38552 14.5644 1.34915 14.6251 1.32433 14.5913C1.21937 14.4475 1.1483 14.2679 1.04253 14.1254C1.02091 14.0966 0.975567 14.1292 0.9622 14.1245C0.852403 14.0829 0.911204 13.898 0.907521 13.8665C0.874583 13.6252 0.781341 13.4814 0.700671 13.2796C0.682114 13.2327 0.63601 13.3153 0.615663 13.271C0.511293 13.0409 0.426183 12.7911 0.379904 12.5462C0.369891 12.4918 0.44559 12.5202 0.443912 12.4933C0.436035 12.3749 0.314901 12.3855 0.30709 12.2717C0.305467 12.2478 0.360748 12.2451 0.365191 12.2393C0.435167 12.15 0.292978 12.1306 0.285238 12.1147C0.187551 11.9155 0.286218 11.7465 0.221172 11.5476C0.213222 11.5238 0.15895 11.5938 0.140919 11.5251C0.0209674 11.0686 -0.0311002 10.559 0.0189153 10.0857C0.0267297 10.0131 0.0781306 10.0644 0.0846312 10.06C0.108524 10.042 0.118557 10.0254 0.120449 10.0103C0.107278 10.0021 0.0944876 9.99391 0.0819089 9.98657C0.077012 9.98373 0.0716549 9.98137 0.0669016 9.97876C0.0702066 9.98024 0.0739777 9.98217 0.0783477 9.98403C0.0876698 9.98763 0.100612 9.99296 0.120304 9.99915C0.114382 9.95818 0.0504593 9.92897 0.0472415 9.91199C0.0155804 9.72113 0.141812 9.55752 0.00363794 9.40682C0.0118955 9.36636 0.0202794 9.32622 0.0290705 9.28645ZM13.4998 19.1363C13.4685 19.0644 13.3852 19.1363 13.454 19.176C13.4573 19.1775 13.5012 19.1396 13.4998 19.1363ZM13.2002 17.5394C13.177 17.5922 13.2716 17.6689 13.3003 17.6013C13.3238 17.5477 13.2288 17.4727 13.2002 17.5394ZM12.7056 16.6785C12.7125 16.5328 12.42 16.6849 12.5435 16.7616C12.5509 16.7658 12.7052 16.687 12.7056 16.6785ZM11.8868 15.7734C11.8631 15.8788 12.0439 15.8339 12.0514 15.7894C12.075 15.6419 11.9111 15.669 11.8868 15.7734ZM8.81095 11.2848C8.91476 11.2831 8.98311 11.3388 8.95775 11.4448C8.91035 11.3905 8.85921 11.3387 8.81095 11.2848ZM5.16934 8.58372C5.10147 8.62861 5.21047 8.70045 5.22672 8.62124C5.22634 8.61741 5.17222 8.58187 5.16934 8.58372ZM5.12096 8.88212C5.08556 8.78693 4.9557 8.9785 5.05732 8.97531C5.06239 8.97493 5.12285 8.88689 5.12096 8.88212ZM1.88213 10.2668C1.82627 10.2905 1.83808 10.3348 1.87126 10.3683C1.87222 10.3459 1.88748 10.311 1.90425 10.2785C1.8923 10.2711 1.88376 10.2663 1.88213 10.2668ZM2.08662 8.11175C2.08475 8.10879 2.08387 8.11719 2.0851 8.13285C2.08726 8.12017 2.08693 8.11355 2.08662 8.11175ZM1.49958 8.1667C1.49595 8.16786 1.49576 8.21417 1.5153 8.21198C1.57747 8.20311 1.5569 8.14511 1.49958 8.1667ZM0.0669016 9.97876C0.0478678 9.9702 0.0454447 9.96748 0.0454447 9.96748C0.046995 9.96751 0.0559661 9.97274 0.0669016 9.97876Z" fill="#181818" />
</svg>